<svg version="1.1" viewBox="0.0 0.0 480.0 240.0" fill="none" stroke="none" stroke-linecap="square" stroke-miterlimit="10" xmlns:xlink="http://www.w3.org/1999/xlink" xmlns="http://www.w3.org/2000/svg"><clipPath id="p.0"><path d="m0 0l480.0 0l0 240.0l-480.0 0l0 -240.0z" clip-rule="nonzero"/></clipPath><g clip-path="url(#p.0)"><path fill="#ffffff" d="m0 0l480.0 0l0 240.0l-480.0 0z" fill-rule="evenodd"/><path fill="#000000" fill-opacity="0.0" d="m50.25373 92.44212l89.57481 -28.346458" fill-rule="evenodd"/><path stroke="#0000ff" stroke-width="3.0" stroke-linejoin="round" stroke-linecap="butt" d="m61.093887 89.011696l68.932495 -21.81408" fill-rule="evenodd"/><path stroke="#0000ff" stroke-width="3.0" stroke-linecap="butt" d="m51.68383 91.98956c-0.8223152 -2.5985184 0.6175804 -5.3716507 3.2160988 -6.193962c2.5985146 -0.82231903 5.371647 0.6175766 6.193962 3.216095c0.8223152 2.5985107 -0.6175804 5.371643 -3.216095 6.193962c-2.5985184 0.8223114 -5.3716507 -0.6175842 -6.193966 -3.216095z" fill-rule="nonzero"/><path fill="#0000ff" stroke="#0000ff" stroke-width="3.0" stroke-linecap="butt" d="m130.02638 67.19762l-2.1986465 4.234421l7.8194656 -6.0131607l-9.8552475 -0.41990662z" fill-rule="evenodd"/><path fill="#000000" fill-opacity="0.0" d="m133.45781 61.962143l89.79529 40.0" fill-rule="evenodd"/><path stroke="#0000ff" stroke-width="3.0" stroke-linejoin="round" stroke-linecap="butt" d="m143.84393 66.58872l70.01758 31.18985" fill-rule="evenodd"/><path stroke="#0000ff" stroke-width="3.0" stroke-linecap="butt" d="m134.82802 62.57251c1.1090393 -2.4896812 4.0263824 -3.6089058 6.5160675 -2.4998589c2.4896698 1.1090469 3.608902 4.026394 2.4998474 6.5160713c-1.1090393 2.4896774 -4.0263824 3.608902 -6.5160675 2.499855c-2.4896698 -1.1090469 -3.608902 -4.02639 -2.4998474 -6.5160675z" fill-rule="nonzero"/><path fill="#0000ff" stroke="#0000ff" stroke-width="3.0" stroke-linecap="butt" d="m213.8615 97.77858l-4.4546204 1.708992l9.840027 0.6899719l-7.094406 -6.853592z" fill-rule="evenodd"/><path fill="#000000" fill-opacity="0.0" d="m218.13956 105.793495l88.44095 -82.99213" fill-rule="evenodd"/><path stroke="#0000ff" stroke-width="3.0" stroke-linejoin="round" stroke-linecap="butt" d="m226.43071 98.01315l72.65257 -68.17646" fill-rule="evenodd"/><path stroke="#0000ff" stroke-width="3.0" stroke-linecap="butt" d="m219.23338 104.76706c-1.8650513 -1.9874878 -1.7657776 -5.1105804 0.2217102 -6.9756165c1.9874878 -1.8650436 5.1105804 -1.7657776 6.9756165 0.2217102c1.865036 1.9874878 1.7657776 5.1105804 -0.2217102 6.975624c-1.9874878 1.865036 -5.1105804 1.76577 -6.9756165 -0.22171783z" fill-rule="nonzero"/><path fill="#0000ff" stroke="#0000ff" stroke-width="3.0" stroke-linecap="butt" d="m299.08328 29.836693l-0.15158081 4.768795l4.4506836 -8.803041l-9.067902 3.882677z" fill-rule="evenodd"/><path fill="#000000" fill-opacity="0.0" d="m300.6149 21.111414l88.944885 37.448814" fill-rule="evenodd"/><path stroke="#0000ff" stroke-width="3.0" stroke-linejoin="round" stroke-linecap="butt" d="m311.09396 25.523455l68.990204 29.047216" fill-rule="evenodd"/><path stroke="#0000ff" stroke-width="3.0" stroke-linecap="butt" d="m301.99738 21.693476c1.0576172 -2.5119572 3.9513245 -3.6909294 6.4632874 -2.6333103c2.511963 1.0576191 3.690918 3.951332 2.6333008 6.4632893c-1.0576172 2.5119572 -3.9513245 3.6909313 -6.4632874 2.6333122c-2.511963 -1.0576191 -3.690918 -3.951334 -2.6333008 -6.463291z" fill-rule="nonzero"/><path fill="#0000ff" stroke="#0000ff" stroke-width="3.0" stroke-linecap="butt" d="m380.08417 54.57067l-4.4185486 1.8002281l9.852112 0.48749542l-7.233795 -6.706272z" fill-rule="evenodd"/><path fill="#000000" fill-opacity="0.0" d="m50.255085 195.39304l338.86612 -31.81102" fill-rule="evenodd"/><path stroke="#ff0000" stroke-width="3.0" stroke-linejoin="round" stroke-linecap="butt" d="m61.575317 194.33034l317.30966 -29.7874" fill-rule="evenodd"/><path stroke="#ff0000" stroke-width="3.0" stroke-linecap="butt" d="m51.74852 195.25282c-0.25473785 -2.7135925 1.7385597 -5.1199036 4.4521523 -5.374634c2.7135963 -0.25474548 5.1199036 1.7385559 5.3746414 4.4521484c0.25473785 2.7135925 -1.7385559 5.1199036 -4.4521523 5.374649c-2.7135925 0.25473022 -5.1199036 -1.7385712 -5.3746414 -4.4521637z" fill-rule="nonzero"/><path fill="#ff0000" stroke="#ff0000" stroke-width="3.0" stroke-linecap="butt" d="m378.88498 164.54294l-3.0436707 3.6743011l8.913422 -4.2253265l-9.544067 -2.49263z" fill-rule="evenodd"/><path fill="#000000" fill-opacity="0.0" d="m23.463379 66.90472l42.803146 0l0 48.472443l-42.803146 0z" fill-rule="evenodd"/><path fill="#000000" d="m39.24463 91.74159q1.46875 -2.34375 1.875 -2.84375q0.609375 -0.734375 1.109375 -1.0q0.515625 -0.265625 1.015625 -0.265625q0.640625 0 1.03125 0.375q0.390625 0.359375 0.390625 0.984375q0 0.59375 -0.3125 0.953125q-0.3125 0.34375 -0.796875 0.34375q-0.578125 0 -0.890625 -0.671875q-0.21875 -0.4375 -0.46875 -0.4375q-0.28125 0 -0.5625 0.3125q-0.28125 0.296875 -2.15625 3.28125l0.84375 3.71875q0.171875 0.8125 0.390625 1.0625q0.21875 0.234375 0.53125 0.234375q0.921875 0 2.375 -2.3125l0.578125 0.328125q-1.046875 1.875 -2.0625 2.6875q-1.015625 0.796875 -1.765625 0.796875q-0.796875 0 -1.203125 -0.5625q-0.390625 -0.578125 -1.046875 -3.765625q-1.578125 2.84375 -2.5 3.71875q-0.65625 0.609375 -1.546875 0.609375q-0.703125 0 -1.140625 -0.421875q-0.4375 -0.4375 -0.4375 -1.078125q0 -0.515625 0.328125 -0.859375q0.328125 -0.359375 0.796875 -0.359375q0.359375 0 0.59375 0.171875q0.25 0.15625 0.40625 0.59375q0.140625 0.359375 0.21875 0.453125q0.09375 0.09375 0.234375 0.09375q0.265625 0 0.515625 -0.296875q0.515625 -0.625 2.28125 -3.625l-0.84375 -3.859375q-0.09375 -0.453125 -0.296875 -0.671875q-0.203125 -0.21875 -0.515625 -0.21875q-0.890625 0 -1.828125 2.25l-0.59375 -0.359375q0.8125 -2.0 1.609375 -2.734375q0.796875 -0.734375 1.59375 -0.734375q0.765625 0 1.1875 0.59375q0.421875 0.59375 1.0625 3.515625z" fill-rule="nonzero"/><path fill="#000000" d="m46.916504 97.63222l0.53125 0l0 2.984375l2.359375 0l0 0.71875l-2.359375 0l0 4.703125q0 0.609375 0.28125 0.9375q0.296875 0.3125 0.734375 0.3125q0.53125 0 0.90625 -0.484375q0.375 -0.5 0.4375 -1.625l0.53125 0q-0.046875 1.453125 -0.671875 2.171875q-0.609375 0.703125 -1.59375 0.703125q-0.90625 0 -1.421875 -0.5q-0.515625 -0.5 -0.515625 -1.296875l0 -4.921875l-1.265625 0l0 -0.546875q0.859375 -0.140625 1.3125 -0.71875q0.671875 -0.875 0.734375 -2.4375z" fill-rule="nonzero"/><path fill="#000000" fill-opacity="0.0" d="m386.19653 35.198162l97.22833 0l0 48.47244l-97.22833 0z" fill-rule="evenodd"/><path fill="#000000" d="m401.97778 60.035038q1.46875 -2.34375 1.875 -2.84375q0.609375 -0.734375 1.109375 -1.0q0.515625 -0.265625 1.015625 -0.265625q0.640625 0 1.03125 0.375q0.390625 0.359375 0.390625 0.984375q0 0.59375 -0.3125 0.953125q-0.3125 0.34375 -0.796875 0.34375q-0.578125 0 -0.890625 -0.671875q-0.21875 -0.4375 -0.46875 -0.4375q-0.28125 0 -0.5625 0.3125q-0.28125 0.296875 -2.15625 3.28125l0.84375 3.7187462q0.171875 0.8125 0.390625 1.0625q0.21875 0.234375 0.53125 0.234375q0.921875 0 2.375 -2.3124962l0.578125 0.3281212q-1.046875 1.875 -2.0625 2.6875q-1.015625 0.796875 -1.765625 0.796875q-0.796875 0 -1.203125 -0.5625q-0.390625 -0.578125 -1.046875 -3.7656212q-1.578125 2.8437462 -2.5 3.7187462q-0.65625 0.609375 -1.546875 0.609375q-0.703125 0 -1.140625 -0.421875q-0.4375 -0.4375 -0.4375 -1.078125q0 -0.515625 0.328125 -0.859375q0.328125 -0.359375 0.796875 -0.359375q0.359375 0 0.59375 0.171875q0.25 0.15625 0.40625 0.59375q0.140625 0.359375 0.21875 0.453125q0.09375 0.09375 0.234375 0.09375q0.265625 0 0.515625 -0.296875q0.515625 -0.625 2.28125 -3.6249962l-0.84375 -3.859375q-0.09375 -0.453125 -0.296875 -0.671875q-0.203125 -0.21875 -0.515625 -0.21875q-0.890625 0 -1.828125 2.25l-0.59375 -0.359375q0.8125 -2.0 1.609375 -2.734375q0.796875 -0.734375 1.59375 -0.734375q0.765625 0 1.1875 0.59375q0.421875 0.59375 1.0625 3.515625z" fill-rule="nonzero"/><path fill="#000000" d="m409.64966 65.92566l0.53125 0l0 2.984375l2.359375 0l0 0.71875l-2.359375 0l0 4.703125q0 0.609375 0.28125 0.9375q0.296875 0.3125 0.734375 0.3125q0.53125 0 0.90625 -0.484375q0.375 -0.5 0.4375 -1.625l0.53125 0q-0.046875 1.453125 -0.671875 2.171875q-0.609375 0.703125 -1.59375 0.703125q-0.90625 0 -1.421875 -0.5q-0.515625 -0.5 -0.515625 -1.296875l0 -4.921875l-1.265625 0l0 -0.546875q0.859375 -0.140625 1.3125 -0.71875q0.671875 -0.875 0.734375 -2.4375zm4.3203125 4.375l3.78125 0l0 -3.796875l1.046875 0l0 3.796875l3.796875 0l0 1.046875l-3.796875 0l0 3.765625l-1.046875 0l0 -3.765625l-3.78125 0l0 -1.046875zm15.2421875 -4.90625l0.515625 0l0 7.390625l1.796875 0l0 0.671875l-1.796875 0l0 1.65625q0 0.21875 0.171875 0.359375q0.25 0.171875 0.578125 0.171875l0.65625 0l0 0.59375l-4.328125 0l0 -0.59375l0.796875 0q0.40625 0 0.59375 -0.171875q0.203125 -0.171875 0.203125 -0.5l0 -1.515625l-4.421875 0l0 -0.75l5.234375 -7.3125zm-0.8125 2.125l-3.78125 5.265625l3.78125 0l0 -5.265625z" fill-rule="nonzero"/><path fill="#000000" d="m432.40747 76.23816l4.75 -10.84375l0.265625 0l4.484375 10.84375l-9.5 0zm7.640625 -0.671875l-3.171875 -7.78125l-3.421875 7.78125l6.59375 0z" fill-rule="nonzero"/><path fill="#000000" d="m444.75903 65.92566l0.53125 0l0 2.984375l2.359375 0l0 0.71875l-2.359375 0l0 4.703125q0 0.609375 0.28125 0.9375q0.296875 0.3125 0.734375 0.3125q0.53125 0 0.90625 -0.484375q0.375 -0.5 0.4375 -1.625l0.53125 0q-0.046875 1.453125 -0.671875 2.171875q-0.609375 0.703125 -1.59375 0.703125q-0.90625 0 -1.421875 -0.5q-0.515625 -0.5 -0.515625 -1.296875l0 -4.921875l-1.265625 0l0 -0.546875q0.859375 -0.140625 1.3125 -0.71875q0.671875 -0.875 0.734375 -2.4375z" fill-rule="nonzero"/><path fill="#000000" fill-opacity="0.0" d="m24.163177 173.5614l42.803146 0l0 48.472443l-42.803146 0z" fill-rule="evenodd"/><path fill="#000000" d="m39.944427 198.39828q1.46875 -2.34375 1.875 -2.84375q0.609375 -0.734375 1.109375 -1.0q0.515625 -0.265625 1.015625 -0.265625q0.640625 0 1.03125 0.375q0.390625 0.359375 0.390625 0.984375q0 0.59375 -0.3125 0.953125q-0.3125 0.34375 -0.796875 0.34375q-0.578125 0 -0.890625 -0.671875q-0.21875 -0.4375 -0.46875 -0.4375q-0.28125 0 -0.5625 0.3125q-0.28125 0.296875 -2.15625 3.28125l0.84375 3.71875q0.171875 0.8125 0.390625 1.0625q0.21875 0.234375 0.53125 0.234375q0.921875 0 2.375 -2.3125l0.578125 0.328125q-1.046875 1.875 -2.0625 2.6875q-1.015625 0.796875 -1.765625 0.796875q-0.796875 0 -1.203125 -0.5625q-0.390625 -0.578125 -1.046875 -3.765625q-1.578125 2.84375 -2.5 3.71875q-0.65625 0.609375 -1.546875 0.609375q-0.703125 0 -1.140625 -0.421875q-0.4375 -0.4375 -0.4375 -1.078125q0 -0.515625 0.328125 -0.859375q0.328125 -0.359375 0.796875 -0.359375q0.359375 0 0.59375 0.171875q0.25 0.15625 0.40625 0.59375q0.140625 0.359375 0.21875 0.453125q0.09375 0.09375 0.234375 0.09375q0.265625 0 0.515625 -0.296875q0.515625 -0.625 2.28125 -3.625l-0.84375 -3.859375q-0.09375 -0.453125 -0.296875 -0.671875q-0.203125 -0.21875 -0.515625 -0.21875q-0.890625 0 -1.828125 2.25l-0.59375 -0.359375q0.8125 -2.0 1.609375 -2.734375q0.796875 -0.734375 1.59375 -0.734375q0.765625 0 1.1875 0.59375q0.421875 0.59375 1.0625 3.515625z" fill-rule="nonzero"/><path fill="#000000" d="m47.616302 204.28891l0.53125 0l0 2.984375l2.359375 0l0 0.71875l-2.359375 0l0 4.703125q0 0.609375 0.28125 0.9375q0.296875 0.3125 0.734375 0.3125q0.53125 0 0.90625 -0.484375q0.375 -0.5 0.4375 -1.625l0.53125 0q-0.046875 1.453125 -0.671875 2.171875q-0.609375 0.703125 -1.59375 0.703125q-0.90625 0 -1.421875 -0.5q-0.515625 -0.5 -0.515625 -1.296875l0 -4.921875l-1.265625 0l0 -0.546875q0.859375 -0.140625 1.3125 -0.71875q0.671875 -0.875 0.734375 -2.4375z" fill-rule="nonzero"/><path fill="#000000" fill-opacity="0.0" d="m386.89633 141.85484l97.22833 0l0 48.472443l-97.22833 0z" fill-rule="evenodd"/><path fill="#000000" d="m402.67758 166.69173q1.46875 -2.34375 1.875 -2.84375q0.609375 -0.734375 1.109375 -1.0q0.515625 -0.265625 1.015625 -0.265625q0.640625 0 1.03125 0.375q0.390625 0.359375 0.390625 0.984375q0 0.59375 -0.3125 0.953125q-0.3125 0.34375 -0.796875 0.34375q-0.578125 0 -0.890625 -0.671875q-0.21875 -0.4375 -0.46875 -0.4375q-0.28125 0 -0.5625 0.3125q-0.28125 0.296875 -2.15625 3.28125l0.84375 3.71875q0.171875 0.8125 0.390625 1.0625q0.21875 0.234375 0.53125 0.234375q0.921875 0 2.375 -2.3125l0.578125 0.328125q-1.046875 1.875 -2.0625 2.6875q-1.015625 0.796875 -1.765625 0.796875q-0.796875 0 -1.203125 -0.5625q-0.390625 -0.578125 -1.046875 -3.765625q-1.578125 2.84375 -2.5 3.71875q-0.65625 0.609375 -1.546875 0.609375q-0.703125 0 -1.140625 -0.421875q-0.4375 -0.4375 -0.4375 -1.078125q0 -0.515625 0.328125 -0.859375q0.328125 -0.359375 0.796875 -0.359375q0.359375 0 0.59375 0.171875q0.25 0.15625 0.40625 0.59375q0.140625 0.359375 0.21875 0.453125q0.09375 0.09375 0.234375 0.09375q0.265625 0 0.515625 -0.296875q0.515625 -0.625 2.28125 -3.625l-0.84375 -3.859375q-0.09375 -0.453125 -0.296875 -0.671875q-0.203125 -0.21875 -0.515625 -0.21875q-0.890625 0 -1.828125 2.25l-0.59375 -0.359375q0.8125 -2.0 1.609375 -2.734375q0.796875 -0.734375 1.59375 -0.734375q0.765625 0 1.1875 0.59375q0.421875 0.59375 1.0625 3.515625z" fill-rule="nonzero"/><path fill="#000000" d="m410.34946 172.58235l0.53125 0l0 2.984375l2.359375 0l0 0.71875l-2.359375 0l0 4.703125q0 0.609375 0.28125 0.9375q0.296875 0.3125 0.734375 0.3125q0.53125 0 0.90625 -0.484375q0.375 -0.5 0.4375 -1.625l0.53125 0q-0.046875 1.453125 -0.671875 2.171875q-0.609375 0.703125 -1.59375 0.703125q-0.90625 0 -1.421875 -0.5q-0.515625 -0.5 -0.515625 -1.296875l0 -4.921875l-1.265625 0l0 -0.546875q0.859375 -0.140625 1.3125 -0.71875q0.671875 -0.875 0.734375 -2.4375zm4.3203125 4.375l3.78125 0l0 -3.796875l1.046875 0l0 3.796875l3.796875 0l0 1.046875l-3.796875 0l0 3.765625l-1.046875 0l0 -3.765625l-3.78125 0l0 -1.046875zm15.2421875 -4.90625l0.515625 0l0 7.390625l1.796875 0l0 0.671875l-1.796875 0l0 1.65625q0 0.21875 0.171875 0.359375q0.25 0.171875 0.578125 0.171875l0.65625 0l0 0.59375l-4.328125 0l0 -0.59375l0.796875 0q0.40625 0 0.59375 -0.171875q0.203125 -0.171875 0.203125 -0.5l0 -1.515625l-4.421875 0l0 -0.75l5.234375 -7.3125zm-0.8125 2.125l-3.78125 5.265625l3.78125 0l0 -5.265625z" fill-rule="nonzero"/><path fill="#000000" d="m433.10727 182.89485l4.75 -10.84375l0.265625 0l4.484375 10.84375l-9.5 0zm7.640625 -0.671875l-3.171875 -7.78125l-3.421875 7.78125l6.59375 0z" fill-rule="nonzero"/><path fill="#000000" d="m445.45883 172.58235l0.53125 0l0 2.984375l2.359375 0l0 0.71875l-2.359375 0l0 4.703125q0 0.609375 0.28125 0.9375q0.296875 0.3125 0.734375 0.3125q0.53125 0 0.90625 -0.484375q0.375 -0.5 0.4375 -1.625l0.53125 0q-0.046875 1.453125 -0.671875 2.171875q-0.609375 0.703125 -1.59375 0.703125q-0.90625 0 -1.421875 -0.5q-0.515625 -0.5 -0.515625 -1.296875l0 -4.921875l-1.265625 0l0 -0.546875q0.859375 -0.140625 1.3125 -0.71875q0.671875 -0.875 0.734375 -2.4375z" fill-rule="nonzero"/><path fill="#000000" fill-opacity="0.0" d="m382.71875 59.897984l11.181091 -3.5275612" fill-rule="evenodd"/><path stroke="#0000ff" stroke-width="3.0" stroke-linejoin="round" stroke-linecap="butt" d="m393.56192 56.47704l0.33792114 -0.106616974" fill-rule="evenodd"/><path stroke="#0000ff" stroke-width="3.0" stroke-linecap="butt" d="m384.14923 59.44667c-0.82003784 -2.5992355 0.62228394 -5.371105 3.221527 -6.191147c2.5992432 -0.82003784 5.3710938 0.62228394 6.191162 3.2215195c0.82003784 2.5992317 -0.62228394 5.3711014 -3.221527 6.191143c-2.5992432 0.82004166 -5.3710938 -0.6222801 -6.191162 -3.2215157z" fill-rule="nonzero"/><path fill="#000000" fill-opacity="0.0" d="m382.83508 165.54118l11.181091 -3.5275574" fill-rule="evenodd"/><path stroke="#ff0000" stroke-width="3.0" stroke-linejoin="round" stroke-linecap="butt" d="m393.67828 162.12024l0.33792114 -0.10661316" fill-rule="evenodd"/><path stroke="#ff0000" stroke-width="3.0" stroke-linecap="butt" d="m384.2656 165.08987c-0.82003784 -2.599228 0.62228394 -5.371109 3.221527 -6.191147c2.5992126 -0.82003784 5.3710938 0.62228394 6.1911316 3.2215118c0.82003784 2.5992432 -0.62228394 5.371109 -3.221527 6.191147c-2.5992126 0.82003784 -5.3710938 -0.62228394 -6.1911316 -3.2215118z" fill-rule="nonzero"/></g></svg>