<svg version="1.1" viewBox="0.0 0.0 480.0 240.0" fill="none" stroke="none" stroke-linecap="square" stroke-miterlimit="10" xmlns:xlink="http://www.w3.org/1999/xlink" xmlns="http://www.w3.org/2000/svg"><clipPath id="g3aa3f735953_0_48.0"><path d="m0 0l480.0 0l0 240.0l-480.0 0l0 -240.0z" clip-rule="nonzero"/></clipPath><g clip-path="url(#g3aa3f735953_0_48.0)"><path fill="#ffffff" d="m0 0l480.0 0l0 240.0l-480.0 0z" fill-rule="evenodd"/><path fill="#150097" fill-opacity="0.3734" d="m138.77307 30.231298c0.028701782 1.1698112 0.019180298 5.090498 0.1722107 7.0188656c0.15301514 1.9283638 0.38839722 3.2392616 0.74591064 4.551319c0.35751343 1.3120575 0.9257965 2.386795 1.3991547 3.3210258c0.4733429 0.934227 0.9273224 1.566742 1.4409485 2.2843437c0.51364136 0.71759796 1.1059418 1.4108925 1.6408691 2.0212631c0.53492737 0.61037445 1.0497589 1.0828438 1.5687408 1.640976c0.5189667 0.558136 1.0383759 1.1278458 1.5450897 1.7078323c0.5066986 0.5799866 1.0595856 1.2094612 1.495163 1.7720795c0.4355774 0.5626221 0.8165741 1.1048393 1.1182709 1.6036453c0.30171204 0.49880219 0.52264404 0.8688202 0.6919403 1.389183c0.16929626 0.52036667 0.33306885 1.1423187 0.3238678 1.7330132c-0.009185791 0.5906906 -0.11364746 1.1549034 -0.37904358 1.8111496c-0.26539612 0.6562462 -0.74746704 1.4502525 -1.2133331 2.1263237c-0.4658661 0.67607117 -0.9878235 1.24086 -1.5818787 1.9300995c-0.5940399 0.6892395 -1.345047 1.4899063 -1.9824066 2.2053375c-0.6373596 0.7154312 -1.2675476 1.3981552 -1.8417358 2.0872498c-0.57418823 0.68909454 -1.1304932 1.3809357 -1.603363 2.0473099c-0.47288513 0.66638184 -0.88197327 1.3106155 -1.2338715 1.950943c-0.3518982 0.64032745 -0.6066742 1.1821136 -0.8775177 1.8910294c-0.27085876 0.7089157 -0.5541229 1.5085678 -0.7475891 2.3624878c-0.19346619 0.85391235 -0.29963684 1.5959702 -0.413208 2.7610016c-0.11357117 1.1650391 -0.21853638 2.855507 -0.268219 4.22921c-0.049682617 1.373703 -0.024887085 3.3441772 -0.02986145 4.013008" fill-rule="evenodd"/><path fill="#000000" fill-opacity="0.0" d="m48.285587 87.843124l89.921265 -28.314964" fill-rule="evenodd"/><path stroke="#0000ff" stroke-width="3.0" stroke-linejoin="round" stroke-linecap="butt" d="m59.13063 84.42817l69.26964 -21.812057" fill-rule="evenodd"/><path stroke="#0000ff" stroke-width="3.0" stroke-linecap="butt" d="m49.71633 87.3926c-0.81860733 -2.5996857 0.62524796 -5.370758 3.2249336 -6.1893616c2.5996857 -0.81861115 5.370758 0.62524414 6.1893654 3.2249298c0.81860733 2.5996857 -0.62524414 5.370758 -3.2249336 6.189369c-2.5996857 0.8186035 -5.370758 -0.62525177 -6.1893654 -3.2249374z" fill-rule="nonzero"/><path fill="#0000ff" stroke="#0000ff" stroke-width="3.0" stroke-linecap="butt" d="m128.40027 62.61611l-2.2046814 4.231285l7.8280487 -6.001999l-9.854645 -0.4339714z" fill-rule="evenodd"/><path fill="#000000" fill-opacity="0.0" d="m132.77115 72.354935l89.10237 40.7874" fill-rule="evenodd"/><path stroke="#0000ff" stroke-width="3.0" stroke-linejoin="round" stroke-linecap="butt" d="m143.10947 77.08739l69.41568 31.77565" fill-rule="evenodd"/><path stroke="#0000ff" stroke-width="3.0" stroke-linecap="butt" d="m134.13504 72.97926c1.1344299 -2.478218 4.0630646 -3.5675735 6.541275 -2.4331436c2.4782257 1.1344223 3.5675812 4.0630493 2.4331512 6.5412674c-1.1344299 2.478218 -4.0630493 3.5675735 -6.541275 2.4331512c-2.4782104 -1.1344299 -3.567566 -4.063057 -2.4331512 -6.541275z" fill-rule="nonzero"/><path fill="#0000ff" stroke="#0000ff" stroke-width="3.0" stroke-linecap="butt" d="m212.52515 108.86304l-4.471863 1.6633911l9.8324585 0.79047394l-7.024002 -6.92572z" fill-rule="evenodd"/><path fill="#000000" fill-opacity="0.0" d="m217.36977 108.63315l89.10237 -66.80315" fill-rule="evenodd"/><path stroke="#0000ff" stroke-width="3.0" stroke-linejoin="round" stroke-linecap="butt" d="m226.46692 101.8127l71.779175 -53.815342" fill-rule="evenodd"/><path stroke="#0000ff" stroke-width="3.0" stroke-linecap="butt" d="m218.56993 107.73335c-1.6349487 -2.1806946 -1.1925354 -5.2738876 0.9881592 -6.9088287c2.1807098 -1.6349487 5.2738953 -1.1925278 6.908844 0.9881668c1.6349335 2.1807022 1.1925201 5.2738876 -0.98817444 6.9088364c-2.1806946 1.6349411 -5.2738953 1.1925278 -6.9088287 -0.98817444z" fill-rule="nonzero"/><path fill="#0000ff" stroke="#0000ff" stroke-width="3.0" stroke-linecap="butt" d="m298.2461 47.997356l-0.6755676 4.723137l5.3926086 -8.25967l-9.440186 2.860981z" fill-rule="evenodd"/><path fill="#000000" fill-opacity="0.0" d="m299.59998 23.480917l88.62991 20.913385" fill-rule="evenodd"/><path stroke="#0000ff" stroke-width="3.0" stroke-linejoin="round" stroke-linecap="butt" d="m310.66608 26.092108l67.55734 15.941038" fill-rule="evenodd"/><path stroke="#0000ff" stroke-width="3.0" stroke-linecap="butt" d="m301.05988 23.825401c0.6259155 -2.6526775 3.2837524 -4.295677 5.936432 -3.6697426c2.6526794 0.6259327 4.295685 3.2837715 3.6697693 5.936449c-0.62594604 2.6526756 -3.283783 4.295677 -5.9364624 3.6697426c-2.6526794 -0.6259327 -4.295685 -3.2837715 -3.6697388 -5.936449z" fill-rule="nonzero"/><path fill="#0000ff" stroke="#0000ff" stroke-width="3.0" stroke-linecap="butt" d="m378.22345 42.033146l-4.05838 2.5087738l9.796356 -1.1548233l-8.246765 -5.4123306z" fill-rule="evenodd"/><path fill="#000000" fill-opacity="0.0" d="m49.09535 215.98409l340.69293 -60.72441" fill-rule="evenodd"/><path stroke="#ff0000" stroke-width="3.0" stroke-linejoin="round" stroke-linecap="butt" d="m60.288933 213.98897l319.3776 -56.9252" fill-rule="evenodd"/><path stroke="#ff0000" stroke-width="3.0" stroke-linecap="butt" d="m50.572075 215.72089c-0.4782524 -2.6832428 1.3092384 -5.2461395 3.9924736 -5.7243958c2.683239 -0.47825623 5.246132 1.3092346 5.724388 3.9924774c0.4782524 2.6832275 -1.3092384 5.2461243 -3.9924736 5.7243805c-2.683239 0.47825623 -5.246132 -1.3092346 -5.724388 -3.9924622z" fill-rule="nonzero"/><path fill="#ff0000" stroke="#ff0000" stroke-width="3.0" stroke-linecap="butt" d="m379.66653 157.06375l-2.7294006 3.9134064l8.533478 -4.9479065l-9.717499 -1.6949005z" fill-rule="evenodd"/><path fill="#150097" fill-opacity="0.3734" d="m221.66475 99.07288c0.028686523 0.5530777 0.019180298 2.4067535 0.17219543 3.3184662c0.1530304 0.9117203 0.38841248 1.5315018 0.74591064 2.1518402c0.35751343 0.6203308 0.92581177 1.1284561 1.3991699 1.5701523c0.4733429 0.44169617 0.9273071 0.74074554 1.4409485 1.0800247c0.5136261 0.33927917 1.1059265 0.66706085 1.6408691 0.9556427c0.53492737 0.28858185 1.0497589 0.51195526 1.5687256 0.77584076c0.5189667 0.2638855 1.0383759 0.5332413 1.5450897 0.80744934c0.50671387 0.2742157 1.0596008 0.5718231 1.4951782 0.8378296c0.43556213 0.26599884 0.8165741 0.52236176 1.1182709 0.75819397c0.30169678 0.23582458 0.5226288 0.4107666 0.69192505 0.6567917c0.16931152 0.24602509 0.33306885 0.54008484 0.32388306 0.8193588c-0.00920105 0.279274 -0.11364746 0.54602814 -0.37904358 0.85630035c-0.26539612 0.3102646 -0.74746704 0.68566895 -1.2133331 1.00531c-0.46588135 0.3196411 -0.9878235 0.5866699 -1.5818787 0.9125366c-0.5940399 0.3258667 -1.3450623 0.704422 -1.9824066 1.0426712c-0.6373596 0.3382492 -1.2675629 0.66104126 -1.8417358 0.9868393c-0.57418823 0.32579803 -1.1304932 0.65289307 -1.6033783 0.96795654c-0.47286987 0.31505585 -0.88197327 0.61964417 -1.2338715 0.92238617c-0.3518982 0.302742 -0.60665894 0.5588989 -0.8775177 0.89406586c-0.2708435 0.33517456 -0.5541229 0.7132416 -0.7475891 1.1169662c-0.19345093 0.40372467 -0.29962158 0.75457 -0.41319275 1.3053894c-0.11357117 0.5508194 -0.21855164 1.3500595 -0.268219 1.9995346c-0.049682617 0.6494827 -0.024887085 1.5811081 -0.02986145 1.8973312" fill-rule="evenodd"/><path fill="#150097" fill-opacity="0.3734" d="m305.4975 -5.1411967c0.028686523 1.8876812 0.019165039 8.214355 0.1722107 11.326088c0.15301514 3.1117315 0.38839722 5.227083 0.74591064 7.344303c0.35751343 2.11722 0.92578125 3.8514862 1.3991394 5.3590164c0.47335815 1.5075283 0.92733765 2.5281944 1.4409485 3.686161c0.51364136 1.1579685 1.105957 2.2767067 1.6408691 3.2616444c0.5349426 0.98493767 1.0497742 1.7473431 1.5687561 2.6479855c0.5189514 0.9006405 1.0383606 1.8199635 1.5450745 2.755865c0.50671387 0.93589973 1.0596008 1.9516621 1.4951782 2.859541c0.4355774 0.9078827 0.81655884 1.7828369 1.1182556 2.5877419c0.3017273 0.8049011 0.52264404 1.4019814 0.69195557 2.2416763c0.169281 0.8396988 0.33306885 1.8433151 0.32385254 2.7964973c-0.009185791 0.9531822 -0.11364746 1.8636284 -0.37902832 2.9225883c-0.26541138 1.05896 -0.74746704 2.3402214 -1.2133484 3.4311714c-0.46585083 1.0909538 -0.9878235 2.0023346 -1.5818481 3.1145363c-0.5940552 1.1121979 -1.3450623 2.4042015 -1.9824219 3.5586662c-0.6373596 1.1544647 -1.2675476 2.256157 -1.8417358 3.368122c-0.57418823 1.111969 -1.1304932 2.2283707 -1.603363 3.3036766c-0.47286987 1.0753059 -0.8819885 2.1148834 -1.2338867 3.148159c-0.3518982 1.0332718 -0.60665894 1.9075317 -0.87750244 3.0514832c-0.27087402 1.143959 -0.5541382 2.4343262 -0.7475891 3.8122635c-0.19348145 1.3779297 -0.2996521 2.5753632 -0.413208 4.4553375c-0.113586426 1.8799744 -0.21853638 4.6078186 -0.268219 6.8245087c-0.049682617 2.2166977 -0.024902344 5.3963776 -0.029876709 6.4756546" fill-rule="evenodd"/><path fill="#150097" fill-opacity="0.3734" d="m388.54617 7.6171927c0.028717041 1.4566054 0.019195557 6.3385034 0.1722107 8.739632c0.15304565 2.4011288 0.38842773 4.033413 0.74591064 5.667139c0.35751343 1.6337242 0.92581177 2.9719486 1.3991699 4.1352158c0.47335815 1.1632652 0.9273071 1.9508495 1.4409485 2.8443794c0.51364136 0.8935318 1.1059265 1.7567921 1.6408691 2.5168076c0.5349426 0.7600136 1.0497742 1.3483162 1.5687256 2.0432816c0.51898193 0.6949692 1.0383911 1.4043541 1.545105 2.1265297c0.50671387 0.7221756 1.0596008 1.5059738 1.4951782 2.2065315c0.43554688 0.7005539 0.81655884 1.3757019 1.1182556 1.9967957c0.30169678 0.62109375 0.52264404 1.0818214 0.69192505 1.729763c0.16931152 0.6479416 0.33306885 1.4223709 0.32388306 2.1578789c-0.009185791 0.7355118 -0.11364746 1.4380455 -0.37902832 2.2551804c-0.26541138 0.81713486 -0.74746704 1.8058014 -1.2133484 2.6476212c-0.46588135 0.84181595 -0.9878235 1.5450745 -1.5818787 2.4032898c-0.5940552 0.85821533 -1.3450623 1.8551712 -1.9824219 2.7459984c-0.6373291 0.890831 -1.2675476 1.7409363 -1.8417053 2.5989723c-0.57418823 0.8580322 -1.1305237 1.7194939 -1.6033936 2.54924c-0.47286987 0.82974243 -0.881958 1.6319237 -1.2338562 2.4292336c-0.3518982 0.7973137 -0.60665894 1.4719238 -0.87753296 2.354641c-0.2708435 0.88272476 -0.55410767 1.8784142 -0.7475891 2.9416847c-0.19345093 1.0632629 -0.29962158 1.9872437 -0.4131775 3.4379044c-0.113586426 1.4506531 -0.2185669 3.5555649 -0.2682495 5.2660446c-0.0496521 1.7104874 -0.024871826 4.1640472 -0.029846191 4.9968567" fill-rule="evenodd"/><path fill="#000000" fill-opacity="0.0" d="m382.53308 58.214333l11.181091 -3.5275612" fill-rule="evenodd"/><path stroke="#0000ff" stroke-width="3.0" stroke-linejoin="round" stroke-linecap="butt" d="m393.37628 54.79339l0.33792114 -0.106616974" fill-rule="evenodd"/><path stroke="#0000ff" stroke-width="3.0" stroke-linecap="butt" d="m383.9636 57.76302c-0.82003784 -2.5992355 0.62228394 -5.371105 3.221527 -6.191143c2.5992126 -0.82004166 5.3710938 0.6222801 6.1911316 3.2215157c0.82003784 2.5992355 -0.62228394 5.371105 -3.221527 6.191143c-2.5992126 0.82004166 -5.3710938 -0.6222801 -6.1911316 -3.2215157z" fill-rule="nonzero"/><path fill="#ff0000" fill-opacity="0.519" d="m388.86438 75.712906c0.028717041 3.2088394 0.019195557 13.963478 0.1722107 19.253075c0.15301514 5.289589 0.38839722 8.885452 0.74591064 12.484489c0.35751343 3.5990372 0.92581177 6.5470886 1.3991699 9.109726c0.47335815 2.5626297 0.9273071 4.2976456 1.4409485 6.26606c0.51364136 1.9684143 1.1059265 3.87014 1.6408691 5.544426c0.5349426 1.6742859 1.0497742 2.9702911 1.5687256 4.5012817c0.51898193 1.5309906 1.0383911 3.0937347 1.545105 4.684662c0.50668335 1.5909271 1.0595703 3.3175964 1.4951477 4.860901c0.4355774 1.5432892 0.81658936 3.0306091 1.1182861 4.3988647c0.30169678 1.3682404 0.52264404 2.3832092 0.69192505 3.8105927c0.16931152 1.4273987 0.33306885 3.133438 0.32388306 4.7537384c-0.009185791 1.6203003 -0.11364746 3.1679535 -0.37905884 4.9680634c-0.26538086 1.8001251 -0.74746704 3.978119 -1.2133179 5.832611c-0.46588135 1.8544922 -0.9878235 3.4037476 -1.5818787 5.2943573c-0.5940552 1.8906097 -1.3450623 4.0868683 -1.9824219 6.0493317c-0.6373596 1.9624634 -1.2675476 3.8352203 -1.8417358 5.7254333c-0.57418823 1.890213 -1.1304932 3.7879791 -1.603363 5.6158752c-0.47286987 1.8278961 -0.881958 3.5950623 -1.2338562 5.3515167c-0.3518982 1.7564545 -0.60668945 3.2425842 -0.87753296 5.187195c-0.2708435 1.9445953 -0.55410767 4.138077 -0.7475891 6.4804077c-0.19345093 2.3423157 -0.29962158 4.377823 -0.413208 7.5735626c-0.11355591 3.195755 -0.21853638 7.832779 -0.268219 11.600906c-0.049682617 3.7681427 -0.024871826 9.173233 -0.029846191 11.007889" fill-rule="evenodd"/><path fill="#000000" fill-opacity="0.0" d="m23.728075 65.75979l42.803154 0l0 48.472435l-42.803154 0z" fill-rule="evenodd"/><path fill="#000000" d="m39.509327 90.596664q1.46875 -2.34375 1.875 -2.84375q0.609375 -0.734375 1.109375 -1.0q0.515625 -0.265625 1.015625 -0.265625q0.640625 0 1.03125 0.375q0.390625 0.359375 0.390625 0.984375q0 0.59375 -0.3125 0.953125q-0.3125 0.34375 -0.796875 0.34375q-0.578125 0 -0.890625 -0.671875q-0.21875 -0.4375 -0.46875 -0.4375q-0.28125 0 -0.5625 0.3125q-0.28125 0.296875 -2.15625 3.28125l0.84375 3.71875q0.171875 0.8125 0.390625 1.0625q0.21875 0.234375 0.53125 0.234375q0.921875 0 2.375 -2.3125l0.578125 0.328125q-1.046875 1.875 -2.0625 2.6875q-1.015625 0.796875 -1.765625 0.796875q-0.796875 0 -1.203125 -0.5625q-0.390625 -0.578125 -1.046875 -3.765625q-1.578125 2.84375 -2.5 3.71875q-0.65625 0.609375 -1.546875 0.609375q-0.703125 0 -1.140625 -0.421875q-0.4375 -0.4375 -0.4375 -1.078125q0 -0.515625 0.328125 -0.859375q0.328125 -0.359375 0.796875 -0.359375q0.359375 0 0.59375 0.171875q0.25 0.15625 0.40625 0.59375q0.140625 0.359375 0.21875 0.453125q0.09375 0.09375 0.234375 0.09375q0.265625 0 0.515625 -0.296875q0.515625 -0.625 2.28125 -3.625l-0.84375 -3.859375q-0.09375 -0.453125 -0.296875 -0.671875q-0.203125 -0.21875 -0.515625 -0.21875q-0.890625 0 -1.828125 2.25l-0.59375 -0.359375q0.8125 -2.0 1.609375 -2.734375q0.796875 -0.734375 1.59375 -0.734375q0.765625 0 1.1875 0.59375q0.421875 0.59375 1.0625 3.515625z" fill-rule="nonzero"/><path fill="#000000" d="m47.181202 96.48729l0.53125 0l0 2.984375l2.359375 0l0 0.71875l-2.359375 0l0 4.703125q0 0.609375 0.28125 0.9375q0.296875 0.3125 0.734375 0.3125q0.53125 0 0.90625 -0.484375q0.375 -0.5 0.4375 -1.625l0.53125 0q-0.046875 1.453125 -0.671875 2.171875q-0.609375 0.703125 -1.59375 0.703125q-0.90625 0 -1.421875 -0.5q-0.515625 -0.5 -0.515625 -1.296875l0 -4.921875l-1.265625 0l0 -0.546875q0.859375 -0.140625 1.3125 -0.71875q0.671875 -0.875 0.734375 -2.4375z" fill-rule="nonzero"/><path fill="#000000" fill-opacity="0.0" d="m387.10165 30.77802l97.22833 0l0 48.472435l-97.22833 0z" fill-rule="evenodd"/><path fill="#000000" d="m402.8829 55.614895q1.46875 -2.34375 1.875 -2.84375q0.609375 -0.734375 1.109375 -1.0q0.515625 -0.265625 1.015625 -0.265625q0.640625 0 1.03125 0.375q0.390625 0.359375 0.390625 0.984375q0 0.59375 -0.3125 0.953125q-0.3125 0.34375 -0.796875 0.34375q-0.578125 0 -0.890625 -0.671875q-0.21875 -0.4375 -0.46875 -0.4375q-0.28125 0 -0.5625 0.3125q-0.28125 0.296875 -2.15625 3.28125l0.84375 3.71875q0.171875 0.8125 0.390625 1.0625q0.21875 0.234375 0.53125 0.234375q0.921875 0 2.375 -2.3125l0.578125 0.328125q-1.046875 1.875 -2.0625 2.6875q-1.015625 0.796875 -1.765625 0.796875q-0.796875 0 -1.203125 -0.5625q-0.390625 -0.578125 -1.046875 -3.765625q-1.578125 2.84375 -2.5 3.71875q-0.65625 0.609375 -1.546875 0.609375q-0.703125 0 -1.140625 -0.421875q-0.4375 -0.4375 -0.4375 -1.078125q0 -0.515625 0.328125 -0.859375q0.328125 -0.359375 0.796875 -0.359375q0.359375 0 0.59375 0.171875q0.25 0.15625 0.40625 0.59375q0.140625 0.359375 0.21875 0.453125q0.09375 0.09375 0.234375 0.09375q0.265625 0 0.515625 -0.296875q0.515625 -0.625 2.28125 -3.625l-0.84375 -3.859375q-0.09375 -0.453125 -0.296875 -0.671875q-0.203125 -0.21875 -0.515625 -0.21875q-0.890625 0 -1.828125 2.25l-0.59375 -0.359375q0.8125 -2.0 1.609375 -2.734375q0.796875 -0.734375 1.59375 -0.734375q0.765625 0 1.1875 0.59375q0.421875 0.59375 1.0625 3.515625z" fill-rule="nonzero"/><path fill="#000000" d="m410.55478 61.50552l0.53125 0l0 2.9843788l2.359375 0l0 0.71875l-2.359375 0l0 4.703125q0 0.609375 0.28125 0.9375q0.296875 0.3125 0.734375 0.3125q0.53125 0 0.90625 -0.484375q0.375 -0.5 0.4375 -1.625l0.53125 0q-0.046875 1.453125 -0.671875 2.171875q-0.609375 0.703125 -1.59375 0.703125q-0.90625 0 -1.421875 -0.5q-0.515625 -0.5 -0.515625 -1.296875l0 -4.921875l-1.265625 0l0 -0.546875q0.859375 -0.140625 1.3125 -0.7187538q0.671875 -0.875 0.734375 -2.4375zm4.3203125 4.375004l3.78125 0l0 -3.7968788l1.046875 0l0 3.7968788l3.796875 0l0 1.046875l-3.796875 0l0 3.765625l-1.046875 0l0 -3.765625l-3.78125 0l0 -1.046875zm15.2421875 -4.906254l0.515625 0l0 7.390629l1.796875 0l0 0.671875l-1.796875 0l0 1.65625q0 0.21875 0.171875 0.359375q0.25 0.171875 0.578125 0.171875l0.65625 0l0 0.59375l-4.328125 0l0 -0.59375l0.796875 0q0.40625 0 0.59375 -0.171875q0.203125 -0.171875 0.203125 -0.5l0 -1.515625l-4.421875 0l0 -0.75l5.234375 -7.312504zm-0.8125 2.125l-3.78125 5.265629l3.78125 0l0 -5.265629z" fill-rule="nonzero"/><path fill="#000000" d="m433.3126 71.81802l4.75 -10.843754l0.265625 0l4.484375 10.843754l-9.5 0zm7.640625 -0.671875l-3.171875 -7.781254l-3.421875 7.781254l6.59375 0z" fill-rule="nonzero"/><path fill="#000000" d="m445.66415 61.50552l0.53125 0l0 2.9843788l2.359375 0l0 0.71875l-2.359375 0l0 4.703125q0 0.609375 0.28125 0.9375q0.296875 0.3125 0.734375 0.3125q0.53125 0 0.90625 -0.484375q0.375 -0.5 0.4375 -1.625l0.53125 0q-0.046875 1.453125 -0.671875 2.171875q-0.609375 0.703125 -1.59375 0.703125q-0.90625 0 -1.421875 -0.5q-0.515625 -0.5 -0.515625 -1.296875l0 -4.921875l-1.265625 0l0 -0.546875q0.859375 -0.140625 1.3125 -0.7187538q0.671875 -0.875 0.734375 -2.4375z" fill-rule="nonzero"/><path fill="#000000" fill-opacity="0.0" d="m383.0003 186.09906l11.181091 -3.5275574" fill-rule="evenodd"/><path stroke="#ff0000" stroke-width="3.0" stroke-linejoin="round" stroke-linecap="butt" d="m393.84348 182.67813l0.33792114 -0.10662842" fill-rule="evenodd"/><path stroke="#ff0000" stroke-width="3.0" stroke-linecap="butt" d="m384.4308 185.64775c-0.82003784 -2.5992432 0.62228394 -5.371109 3.221527 -6.191147c2.5992126 -0.82003784 5.3710938 0.62228394 6.1911316 3.2215118c0.82003784 2.5992432 -0.62228394 5.371109 -3.221527 6.191147c-2.5992126 0.82003784 -5.3710938 -0.62228394 -6.1911316 -3.2215118z" fill-rule="nonzero"/><path fill="#000000" fill-opacity="0.0" d="m24.45532 195.24733l42.803146 0l0 48.472443l-42.803146 0z" fill-rule="evenodd"/><path fill="#000000" d="m40.23657 220.0842q1.46875 -2.34375 1.875 -2.84375q0.609375 -0.734375 1.109375 -1.0q0.515625 -0.265625 1.015625 -0.265625q0.640625 0 1.03125 0.375q0.390625 0.359375 0.390625 0.984375q0 0.59375 -0.3125 0.953125q-0.3125 0.34375 -0.796875 0.34375q-0.578125 0 -0.890625 -0.671875q-0.21875 -0.4375 -0.46875 -0.4375q-0.28125 0 -0.5625 0.3125q-0.28125 0.296875 -2.15625 3.28125l0.84375 3.71875q0.171875 0.8125 0.390625 1.0625q0.21875 0.234375 0.53125 0.234375q0.921875 0 2.375 -2.3125l0.578125 0.328125q-1.046875 1.875 -2.0625 2.6875q-1.015625 0.796875 -1.765625 0.796875q-0.796875 0 -1.203125 -0.5625q-0.390625 -0.578125 -1.046875 -3.765625q-1.578125 2.84375 -2.5 3.71875q-0.65625 0.609375 -1.546875 0.609375q-0.703125 0 -1.140625 -0.421875q-0.4375 -0.4375 -0.4375 -1.078125q0 -0.515625 0.328125 -0.859375q0.328125 -0.359375 0.796875 -0.359375q0.359375 0 0.59375 0.171875q0.25 0.15625 0.40625 0.59375q0.140625 0.359375 0.21875 0.453125q0.09375 0.09375 0.234375 0.09375q0.265625 0 0.515625 -0.296875q0.515625 -0.625 2.28125 -3.625l-0.84375 -3.859375q-0.09375 -0.453125 -0.296875 -0.671875q-0.203125 -0.21875 -0.515625 -0.21875q-0.890625 0 -1.828125 2.25l-0.59375 -0.359375q0.8125 -2.0 1.609375 -2.734375q0.796875 -0.734375 1.59375 -0.734375q0.765625 0 1.1875 0.59375q0.421875 0.59375 1.0625 3.515625z" fill-rule="nonzero"/><path fill="#000000" d="m47.908443 225.97482l0.53125 0l0 2.984375l2.359375 0l0 0.71875l-2.359375 0l0 4.703125q0 0.609375 0.28125 0.9375q0.296875 0.3125 0.734375 0.3125q0.53125 0 0.90625 -0.484375q0.375 -0.5 0.4375 -1.625l0.53125 0q-0.046875 1.453125 -0.671875 2.171875q-0.609375 0.703125 -1.59375 0.703125q-0.90625 0 -1.421875 -0.5q-0.515625 -0.5 -0.515625 -1.296875l0 -4.921875l-1.265625 0l0 -0.546875q0.859375 -0.140625 1.3125 -0.71875q0.671875 -0.875 0.734375 -2.4375z" fill-rule="nonzero"/><path fill="#000000" fill-opacity="0.0" d="m389.2082 160.26556l97.22836 0l0 48.472443l-97.22836 0z" fill-rule="evenodd"/><path fill="#000000" d="m404.98944 185.10243q1.46875 -2.34375 1.875 -2.84375q0.609375 -0.734375 1.109375 -1.0q0.515625 -0.265625 1.015625 -0.265625q0.640625 0 1.03125 0.375q0.390625 0.359375 0.390625 0.984375q0 0.59375 -0.3125 0.953125q-0.3125 0.34375 -0.796875 0.34375q-0.578125 0 -0.890625 -0.671875q-0.21875 -0.4375 -0.46875 -0.4375q-0.28125 0 -0.5625 0.3125q-0.28125 0.296875 -2.15625 3.28125l0.84375 3.71875q0.171875 0.8125 0.390625 1.0625q0.21875 0.234375 0.53125 0.234375q0.921875 0 2.375 -2.3125l0.578125 0.328125q-1.046875 1.875 -2.0625 2.6875q-1.015625 0.796875 -1.765625 0.796875q-0.796875 0 -1.203125 -0.5625q-0.390625 -0.578125 -1.046875 -3.765625q-1.578125 2.84375 -2.5 3.71875q-0.65625 0.609375 -1.546875 0.609375q-0.703125 0 -1.140625 -0.421875q-0.4375 -0.4375 -0.4375 -1.078125q0 -0.515625 0.328125 -0.859375q0.328125 -0.359375 0.796875 -0.359375q0.359375 0 0.59375 0.171875q0.25 0.15625 0.40625 0.59375q0.140625 0.359375 0.21875 0.453125q0.09375 0.09375 0.234375 0.09375q0.265625 0 0.515625 -0.296875q0.515625 -0.625 2.28125 -3.625l-0.84375 -3.859375q-0.09375 -0.453125 -0.296875 -0.671875q-0.203125 -0.21875 -0.515625 -0.21875q-0.890625 0 -1.828125 2.25l-0.59375 -0.359375q0.8125 -2.0 1.609375 -2.734375q0.796875 -0.734375 1.59375 -0.734375q0.765625 0 1.1875 0.59375q0.421875 0.59375 1.0625 3.515625z" fill-rule="nonzero"/><path fill="#000000" d="m412.66132 190.99306l0.53125 0l0 2.984375l2.359375 0l0 0.71875l-2.359375 0l0 4.703125q0 0.609375 0.28125 0.9375q0.296875 0.3125 0.734375 0.3125q0.53125 0 0.90625 -0.484375q0.375 -0.5 0.4375 -1.625l0.53125 0q-0.046875 1.453125 -0.671875 2.171875q-0.609375 0.703125 -1.59375 0.703125q-0.90625 0 -1.421875 -0.5q-0.515625 -0.5 -0.515625 -1.296875l0 -4.921875l-1.265625 0l0 -0.546875q0.859375 -0.140625 1.3125 -0.71875q0.671875 -0.875 0.734375 -2.4375zm4.3203125 4.375l3.78125 0l0 -3.796875l1.046875 0l0 3.796875l3.796875 0l0 1.046875l-3.796875 0l0 3.765625l-1.046875 0l0 -3.765625l-3.78125 0l0 -1.046875zm15.2421875 -4.90625l0.515625 0l0 7.390625l1.796875 0l0 0.671875l-1.796875 0l0 1.65625q0 0.21875 0.171875 0.359375q0.25 0.171875 0.578125 0.171875l0.65625 0l0 0.59375l-4.328125 0l0 -0.59375l0.796875 0q0.40625 0 0.59375 -0.171875q0.203125 -0.171875 0.203125 -0.5l0 -1.515625l-4.421875 0l0 -0.75l5.234375 -7.3125zm-0.8125 2.125l-3.78125 5.265625l3.78125 0l0 -5.265625z" fill-rule="nonzero"/><path fill="#000000" d="m435.41913 201.30556l4.75 -10.84375l0.265625 0l4.484375 10.84375l-9.5 0zm7.640625 -0.671875l-3.171875 -7.78125l-3.421875 7.78125l6.59375 0z" fill-rule="nonzero"/><path fill="#000000" d="m447.7707 190.99306l0.53125 0l0 2.984375l2.359375 0l0 0.71875l-2.359375 0l0 4.703125q0 0.609375 0.28125 0.9375q0.296875 0.3125 0.734375 0.3125q0.53125 0 0.90625 -0.484375q0.375 -0.5 0.4375 -1.625l0.53125 0q-0.046875 1.453125 -0.671875 2.171875q-0.609375 0.703125 -1.59375 0.703125q-0.90625 0 -1.421875 -0.5q-0.515625 -0.5 -0.515625 -1.296875l0 -4.921875l-1.265625 0l0 -0.546875q0.859375 -0.140625 1.3125 -0.71875q0.671875 -0.875 0.734375 -2.4375z" fill-rule="nonzero"/></g></svg>