<svg version="1.1" viewBox="0.0 0.0 480.0 240.0" fill="none" stroke="none" stroke-linecap="square" stroke-miterlimit="10" xmlns:xlink="http://www.w3.org/1999/xlink" xmlns="http://www.w3.org/2000/svg"><clipPath id="g3aa3f735953_0_53.0"><path d="m0 0l480.0 0l0 240.0l-480.0 0l0 -240.0z" clip-rule="nonzero"/></clipPath><g clip-path="url(#g3aa3f735953_0_53.0)"><path fill="#ffffff" d="m0 0l480.0 0l0 240.0l-480.0 0z" fill-rule="evenodd"/><path fill="#000000" fill-opacity="0.0" d="m55.017307 31.213102l334.99213 0" fill-rule="evenodd"/><path stroke="#000000" stroke-width="2.0" stroke-linejoin="round" stroke-linecap="butt" d="m55.017307 31.213102l334.99213 0" fill-rule="evenodd"/><path fill="#000000" fill-opacity="0.0" d="m139.19054 49.297092l0 -18.078741" fill-rule="evenodd"/><path stroke="#000000" stroke-width="2.0" stroke-linejoin="round" stroke-linecap="butt" stroke-dasharray="8.0,6.0" d="m139.19054 49.297092l0 -18.078741" fill-rule="evenodd"/><path fill="#000000" fill-opacity="0.0" d="m222.67366 49.060684l0 -18.07874" fill-rule="evenodd"/><path stroke="#000000" stroke-width="2.0" stroke-linejoin="round" stroke-linecap="butt" stroke-dasharray="8.0,6.0" d="m222.67366 49.060684l0 -18.07874" fill-rule="evenodd"/><path fill="#000000" fill-opacity="0.0" d="m306.31915 68.87266l0 -40.0" fill-rule="evenodd"/><path stroke="#000000" stroke-width="2.0" stroke-linejoin="round" stroke-linecap="butt" stroke-dasharray="8.0,6.0" d="m306.31915 68.87266l0 -40.0" fill-rule="evenodd"/><path fill="#000000" fill-opacity="0.0" d="m389.3034 61.54381l0 -30.299213" fill-rule="evenodd"/><path stroke="#000000" stroke-width="2.0" stroke-linejoin="round" stroke-linecap="butt" stroke-dasharray="8.0,6.0" d="m389.3034 61.54381l0 -30.299213" fill-rule="evenodd"/><path fill="#000000" fill-opacity="0.0" d="m55.36639 137.2145l335.3386 0" fill-rule="evenodd"/><path stroke="#000000" stroke-width="2.0" stroke-linejoin="round" stroke-linecap="butt" d="m55.36639 137.2145l335.3386 0" fill-rule="evenodd"/><path fill="#000000" fill-opacity="0.0" d="m389.82834 224.3312l0 -88.09448" fill-rule="evenodd"/><path stroke="#000000" stroke-width="2.0" stroke-linejoin="round" stroke-linecap="butt" stroke-dasharray="8.0,6.0" d="m389.82834 224.3312l0 -88.09448" fill-rule="evenodd"/><path fill="#000000" fill-opacity="0.0" d="m22.728504 4.793162l42.80315 0l0 48.47244l-42.80315 0z" fill-rule="evenodd"/><path fill="#000000" d="m38.509754 29.630037q1.46875 -2.34375 1.875 -2.84375q0.609375 -0.734375 1.109375 -1.0q0.515625 -0.265625 1.015625 -0.265625q0.640625 0 1.03125 0.375q0.390625 0.359375 0.390625 0.984375q0 0.59375 -0.3125 0.953125q-0.3125 0.34375 -0.796875 0.34375q-0.578125 0 -0.890625 -0.671875q-0.21875 -0.4375 -0.46875 -0.4375q-0.28125 0 -0.5625 0.3125q-0.28125 0.296875 -2.15625 3.28125l0.84375 3.718752q0.171875 0.8125 0.390625 1.0625q0.21875 0.234375 0.53125 0.234375q0.921875 0 2.375 -2.3125l0.578125 0.328125q-1.046875 1.875 -2.0625 2.6875q-1.015625 0.796875 -1.765625 0.796875q-0.796875 0 -1.203125 -0.5625q-0.390625 -0.578125 -1.046875 -3.765625q-1.578125 2.84375 -2.5 3.71875q-0.65625 0.609375 -1.546875 0.609375q-0.703125 0 -1.140625 -0.421875q-0.4375 -0.4375 -0.4375 -1.078125q0 -0.515625 0.328125 -0.859375q0.328125 -0.359375 0.796875 -0.359375q0.359375 0 0.59375 0.171875q0.25 0.15625 0.40625 0.59375q0.140625 0.359375 0.21875 0.453125q0.09375 0.09375 0.234375 0.09375q0.265625 0 0.515625 -0.296875q0.515625 -0.625 2.28125 -3.625002l-0.84375 -3.859375q-0.09375 -0.453125 -0.296875 -0.671875q-0.203125 -0.21875 -0.515625 -0.21875q-0.890625 0 -1.828125 2.25l-0.59375 -0.359375q0.8125 -2.0 1.609375 -2.734375q0.796875 -0.734375 1.59375 -0.734375q0.765625 0 1.1875 0.59375q0.421875 0.59375 1.0625 3.515625z" fill-rule="nonzero"/><path fill="#000000" d="m46.18163 35.520664l0.53125 0l0 2.984375l2.359375 0l0 0.71875l-2.359375 0l0 4.703125q0 0.609375 0.28125 0.9375q0.296875 0.3125 0.734375 0.3125q0.53125 0 0.90625 -0.484375q0.375 -0.5 0.4375 -1.625l0.53125 0q-0.046875 1.453125 -0.671875 2.171875q-0.609375 0.703125 -1.59375 0.703125q-0.90625 0 -1.421875 -0.5q-0.515625 -0.5 -0.515625 -1.296875l0 -4.921875l-1.265625 0l0 -0.546875q0.859375 -0.140625 1.3125 -0.71875q0.671875 -0.875 0.734375 -2.4375z" fill-rule="nonzero"/><path fill="#000000" fill-opacity="0.0" d="m388.01602 3.585632l97.22833 0l0 48.47244l-97.22833 0z" fill-rule="evenodd"/><path fill="#000000" d="m403.79727 28.422508q1.46875 -2.34375 1.875 -2.84375q0.609375 -0.734375 1.109375 -1.0q0.515625 -0.265625 1.015625 -0.265625q0.640625 0 1.03125 0.375q0.390625 0.359375 0.390625 0.984375q0 0.59375 -0.3125 0.953125q-0.3125 0.34375 -0.796875 0.34375q-0.578125 0 -0.890625 -0.671875q-0.21875 -0.4375 -0.46875 -0.4375q-0.28125 0 -0.5625 0.3125q-0.28125 0.296875 -2.15625 3.28125l0.84375 3.71875q0.171875 0.8125 0.390625 1.0625q0.21875 0.234375 0.53125 0.234375q0.921875 0 2.375 -2.3125l0.578125 0.328125q-1.046875 1.875 -2.0625 2.6875q-1.015625 0.796875 -1.765625 0.796875q-0.796875 0 -1.203125 -0.5625q-0.390625 -0.578125 -1.046875 -3.765625q-1.578125 2.84375 -2.5 3.71875q-0.65625 0.609375 -1.546875 0.609375q-0.703125 0 -1.140625 -0.421875q-0.4375 -0.4375 -0.4375 -1.078125q0 -0.515625 0.328125 -0.859375q0.328125 -0.359375 0.796875 -0.359375q0.359375 0 0.59375 0.171875q0.25 0.15625 0.40625 0.59375q0.140625 0.359375 0.21875 0.453125q0.09375 0.09375 0.234375 0.09375q0.265625 0 0.515625 -0.296875q0.515625 -0.625 2.28125 -3.625l-0.84375 -3.859375q-0.09375 -0.453125 -0.296875 -0.671875q-0.203125 -0.21875 -0.515625 -0.21875q-0.890625 0 -1.828125 2.25l-0.59375 -0.359375q0.8125 -2.0 1.609375 -2.734375q0.796875 -0.734375 1.59375 -0.734375q0.765625 0 1.1875 0.59375q0.421875 0.59375 1.0625 3.515625z" fill-rule="nonzero"/><path fill="#000000" d="m411.46915 34.313133l0.53125 0l0 2.984375l2.359375 0l0 0.71875l-2.359375 0l0 4.703125q0 0.609375 0.28125 0.9375q0.296875 0.3125 0.734375 0.3125q0.53125 0 0.90625 -0.484375q0.375 -0.5 0.4375 -1.625l0.53125 0q-0.046875 1.453125 -0.671875 2.171875q-0.609375 0.703125 -1.59375 0.703125q-0.90625 0 -1.421875 -0.5q-0.515625 -0.5 -0.515625 -1.296875l0 -4.921875l-1.265625 0l0 -0.546875q0.859375 -0.140625 1.3125 -0.71875q0.671875 -0.875 0.734375 -2.4375zm4.3203125 4.375l3.78125 0l0 -3.796875l1.046875 0l0 3.796875l3.796875 0l0 1.046875l-3.796875 0l0 3.765625l-1.046875 0l0 -3.765625l-3.78125 0l0 -1.046875zm15.2421875 -4.90625l0.515625 0l0 7.390625l1.796875 0l0 0.671875l-1.796875 0l0 1.65625q0 0.21875 0.171875 0.359375q0.25 0.171875 0.578125 0.171875l0.65625 0l0 0.59375l-4.328125 0l0 -0.59375l0.796875 0q0.40625 0 0.59375 -0.171875q0.203125 -0.171875 0.203125 -0.5l0 -1.515625l-4.421875 0l0 -0.75l5.234375 -7.3125zm-0.8125 2.125l-3.78125 5.265625l3.78125 0l0 -5.265625z" fill-rule="nonzero"/><path fill="#000000" d="m434.22696 44.625633l4.75 -10.84375l0.265625 0l4.484375 10.84375l-9.5 0zm7.640625 -0.671875l-3.171875 -7.78125l-3.421875 7.78125l6.59375 0z" fill-rule="nonzero"/><path fill="#000000" d="m446.57852 34.313133l0.53125 0l0 2.984375l2.359375 0l0 0.71875l-2.359375 0l0 4.703125q0 0.609375 0.28125 0.9375q0.296875 0.3125 0.734375 0.3125q0.53125 0 0.90625 -0.484375q0.375 -0.5 0.4375 -1.625l0.53125 0q-0.046875 1.453125 -0.671875 2.171875q-0.609375 0.703125 -1.59375 0.703125q-0.90625 0 -1.421875 -0.5q-0.515625 -0.5 -0.515625 -1.296875l0 -4.921875l-1.265625 0l0 -0.546875q0.859375 -0.140625 1.3125 -0.71875q0.671875 -0.875 0.734375 -2.4375z" fill-rule="nonzero"/><path fill="#000000" fill-opacity="0.0" d="m383.08478 32.853577l11.181091 -3.5275574" fill-rule="evenodd"/><path stroke="#0000ff" stroke-width="3.0" stroke-linejoin="round" stroke-linecap="butt" d="m393.92795 29.432638l0.33792114 -0.10662079" fill-rule="evenodd"/><path stroke="#0000ff" stroke-width="3.0" stroke-linecap="butt" d="m384.51526 32.402267c-0.82003784 -2.5992355 0.62228394 -5.371107 3.221527 -6.191147c2.5992432 -0.82003975 5.3710938 0.622282 6.1911316 3.2215176c0.82003784 2.5992336 -0.62228394 5.3711033 -3.2214966 6.191145c-2.5992432 0.82003784 -5.3711243 -0.62228394 -6.191162 -3.2215157z" fill-rule="nonzero"/><path fill="#000000" fill-opacity="0.0" d="m383.69055 138.97957l11.181122 -3.5275726" fill-rule="evenodd"/><path stroke="#ff0000" stroke-width="3.0" stroke-linejoin="round" stroke-linecap="butt" d="m394.53375 135.55862l0.33792114 -0.10661316" fill-rule="evenodd"/><path stroke="#ff0000" stroke-width="3.0" stroke-linecap="butt" d="m385.12106 138.52826c-0.82003784 -2.5992432 0.62228394 -5.371109 3.221527 -6.191147c2.5992432 -0.82003784 5.3710938 0.62228394 6.1911316 3.2215118c0.82003784 2.5992432 -0.62228394 5.371109 -3.2214966 6.191147c-2.5992432 0.82003784 -5.3711243 -0.62228394 -6.191162 -3.2215118z" fill-rule="nonzero"/><path fill="#000000" fill-opacity="0.0" d="m23.974104 110.850945l42.803146 0l0 48.47245l-42.803146 0z" fill-rule="evenodd"/><path fill="#000000" d="m39.755356 135.68782q1.46875 -2.34375 1.875 -2.84375q0.609375 -0.734375 1.109375 -1.0q0.515625 -0.265625 1.015625 -0.265625q0.640625 0 1.03125 0.375q0.390625 0.359375 0.390625 0.984375q0 0.59375 -0.3125 0.953125q-0.3125 0.34375 -0.796875 0.34375q-0.578125 0 -0.890625 -0.671875q-0.21875 -0.4375 -0.46875 -0.4375q-0.28125 0 -0.5625 0.3125q-0.28125 0.296875 -2.15625 3.28125l0.84375 3.71875q0.171875 0.8125 0.390625 1.0625q0.21875 0.234375 0.53125 0.234375q0.921875 0 2.375 -2.3125l0.578125 0.328125q-1.046875 1.875 -2.0625 2.6875q-1.015625 0.796875 -1.765625 0.796875q-0.796875 0 -1.203125 -0.5625q-0.390625 -0.578125 -1.046875 -3.765625q-1.578125 2.84375 -2.5 3.71875q-0.65625 0.609375 -1.546875 0.609375q-0.703125 0 -1.140625 -0.421875q-0.4375 -0.4375 -0.4375 -1.078125q0 -0.515625 0.328125 -0.859375q0.328125 -0.359375 0.796875 -0.359375q0.359375 0 0.59375 0.171875q0.25 0.15625 0.40625 0.59375q0.140625 0.359375 0.21875 0.453125q0.09375 0.09375 0.234375 0.09375q0.265625 0 0.515625 -0.296875q0.515625 -0.625 2.28125 -3.625l-0.84375 -3.859375q-0.09375 -0.453125 -0.296875 -0.671875q-0.203125 -0.21875 -0.515625 -0.21875q-0.890625 0 -1.828125 2.25l-0.59375 -0.359375q0.8125 -2.0 1.609375 -2.734375q0.796875 -0.734375 1.59375 -0.734375q0.765625 0 1.1875 0.59375q0.421875 0.59375 1.0625 3.515625z" fill-rule="nonzero"/><path fill="#000000" d="m47.42723 141.57845l0.53125 0l0 2.984375l2.359375 0l0 0.71875l-2.359375 0l0 4.703125q0 0.609375 0.28125 0.9375q0.296875 0.3125 0.734375 0.3125q0.53125 0 0.90625 -0.484375q0.375 -0.5 0.4375 -1.625l0.53125 0q-0.046875 1.453125 -0.671875 2.171875q-0.609375 0.703125 -1.59375 0.703125q-0.90625 0 -1.421875 -0.5q-0.515625 -0.5 -0.515625 -1.296875l0 -4.921875l-1.265625 0l0 -0.546875q0.859375 -0.140625 1.3125 -0.71875q0.671875 -0.875 0.734375 -2.4375z" fill-rule="nonzero"/><path fill="#000000" fill-opacity="0.0" d="m389.26163 109.64342l97.22833 0l0 48.472443l-97.22833 0z" fill-rule="evenodd"/><path fill="#000000" d="m405.04288 134.4803q1.46875 -2.34375 1.875 -2.84375q0.609375 -0.734375 1.109375 -1.0q0.515625 -0.265625 1.015625 -0.265625q0.640625 0 1.03125 0.375q0.390625 0.359375 0.390625 0.984375q0 0.59375 -0.3125 0.953125q-0.3125 0.34375 -0.796875 0.34375q-0.578125 0 -0.890625 -0.671875q-0.21875 -0.4375 -0.46875 -0.4375q-0.28125 0 -0.5625 0.3125q-0.28125 0.296875 -2.15625 3.28125l0.84375 3.71875q0.171875 0.8125 0.390625 1.0625q0.21875 0.234375 0.53125 0.234375q0.921875 0 2.375 -2.3125l0.578125 0.328125q-1.046875 1.875 -2.0625 2.6875q-1.015625 0.796875 -1.765625 0.796875q-0.796875 0 -1.203125 -0.5625q-0.390625 -0.578125 -1.046875 -3.765625q-1.578125 2.84375 -2.5 3.71875q-0.65625 0.609375 -1.546875 0.609375q-0.703125 0 -1.140625 -0.421875q-0.4375 -0.4375 -0.4375 -1.078125q0 -0.515625 0.328125 -0.859375q0.328125 -0.359375 0.796875 -0.359375q0.359375 0 0.59375 0.171875q0.25 0.15625 0.40625 0.59375q0.140625 0.359375 0.21875 0.453125q0.09375 0.09375 0.234375 0.09375q0.265625 0 0.515625 -0.296875q0.515625 -0.625 2.28125 -3.625l-0.84375 -3.859375q-0.09375 -0.453125 -0.296875 -0.671875q-0.203125 -0.21875 -0.515625 -0.21875q-0.890625 0 -1.828125 2.25l-0.59375 -0.359375q0.8125 -2.0 1.609375 -2.734375q0.796875 -0.734375 1.59375 -0.734375q0.765625 0 1.1875 0.59375q0.421875 0.59375 1.0625 3.515625z" fill-rule="nonzero"/><path fill="#000000" d="m412.71475 140.37093l0.53125 0l0 2.984375l2.359375 0l0 0.71875l-2.359375 0l0 4.703125q0 0.609375 0.28125 0.9375q0.296875 0.3125 0.734375 0.3125q0.53125 0 0.90625 -0.484375q0.375 -0.5 0.4375 -1.625l0.53125 0q-0.046875 1.453125 -0.671875 2.171875q-0.609375 0.703125 -1.59375 0.703125q-0.90625 0 -1.421875 -0.5q-0.515625 -0.5 -0.515625 -1.296875l0 -4.921875l-1.265625 0l0 -0.546875q0.859375 -0.140625 1.3125 -0.71875q0.671875 -0.875 0.734375 -2.4375zm4.3203125 4.375l3.78125 0l0 -3.796875l1.046875 0l0 3.796875l3.796875 0l0 1.046875l-3.796875 0l0 3.765625l-1.046875 0l0 -3.765625l-3.78125 0l0 -1.046875zm15.2421875 -4.90625l0.515625 0l0 7.390625l1.796875 0l0 0.671875l-1.796875 0l0 1.65625q0 0.21875 0.171875 0.359375q0.25 0.171875 0.578125 0.171875l0.65625 0l0 0.59375l-4.328125 0l0 -0.59375l0.796875 0q0.40625 0 0.59375 -0.171875q0.203125 -0.171875 0.203125 -0.5l0 -1.515625l-4.421875 0l0 -0.75l5.234375 -7.3125zm-0.8125 2.125l-3.78125 5.265625l3.78125 0l0 -5.265625z" fill-rule="nonzero"/><path fill="#000000" d="m435.47256 150.68343l4.75 -10.84375l0.265625 0l4.484375 10.84375l-9.5 0zm7.640625 -0.671875l-3.171875 -7.78125l-3.421875 7.78125l6.59375 0z" fill-rule="nonzero"/><path fill="#000000" d="m447.82413 140.37093l0.53125 0l0 2.984375l2.359375 0l0 0.71875l-2.359375 0l0 4.703125q0 0.609375 0.28125 0.9375q0.296875 0.3125 0.734375 0.3125q0.53125 0 0.90625 -0.484375q0.375 -0.5 0.4375 -1.625l0.53125 0q-0.046875 1.453125 -0.671875 2.171875q-0.609375 0.703125 -1.59375 0.703125q-0.90625 0 -1.421875 -0.5q-0.515625 -0.5 -0.515625 -1.296875l0 -4.921875l-1.265625 0l0 -0.546875q0.859375 -0.140625 1.3125 -0.71875q0.671875 -0.875 0.734375 -2.4375z" fill-rule="nonzero"/><path fill="#000000" fill-opacity="0.0" d="m49.166595 136.2214l341.13385 88.25197" fill-rule="evenodd"/><path stroke="#ff0000" stroke-width="3.0" stroke-linejoin="round" stroke-linecap="butt" d="m60.174206 139.06909l320.17267 82.829285" fill-rule="evenodd"/><path stroke="#ff0000" stroke-width="3.0" stroke-linecap="butt" d="m50.618786 136.59709c0.6826248 -2.6386566 3.3750572 -4.2243347 6.013714 -3.5417023c2.6386566 0.6826172 4.2243347 3.3750458 3.54171 6.0137024c-0.68262863 2.6386566 -3.3750572 4.2243347 -6.013714 3.5417175c-2.6386566 -0.68263245 -4.2243347 -3.375061 -3.54171 -6.0137177z" fill-rule="nonzero"/><path fill="#ff0000" stroke="#ff0000" stroke-width="3.0" stroke-linecap="butt" d="m380.34686 221.89838l-4.111206 2.4212494l9.818848 -0.94467163l-8.128876 -5.587784z" fill-rule="evenodd"/><path fill="#000000" fill-opacity="0.0" d="m300.3887 28.554476l89.00787 33.007874" fill-rule="evenodd"/><path stroke="#0000ff" stroke-width="3.0" stroke-linejoin="round" stroke-linecap="butt" d="m311.04926 32.507862l68.70755 25.47966" fill-rule="evenodd"/><path stroke="#0000ff" stroke-width="3.0" stroke-linecap="butt" d="m301.7951 29.076033c0.94766235 -2.5554657 3.7875366 -3.8588371 6.342987 -2.9111633c2.555481 0.9476738 3.8588562 3.787529 2.9111633 6.3429966c-0.94766235 2.555462 -3.7875366 3.8588333 -6.342987 2.9111595c-2.555481 -0.9476738 -3.8588257 -3.787529 -2.9111633 -6.342993z" fill-rule="nonzero"/><path fill="#0000ff" stroke="#0000ff" stroke-width="3.0" stroke-linecap="butt" d="m379.7568 57.987522l-4.3363037 1.990181l9.864014 0.0597229l-7.5178833 -6.3862114z" fill-rule="evenodd"/><path fill="#000000" fill-opacity="0.0" d="m49.14287 30.050428l90.04726 19.27559" fill-rule="evenodd"/><path stroke="#0000ff" stroke-width="3.0" stroke-linejoin="round" stroke-linecap="butt" d="m60.261 32.43038l68.87561 14.743576" fill-rule="evenodd"/><path stroke="#0000ff" stroke-width="3.0" stroke-linecap="butt" d="m50.609646 30.364407c0.57050323 -2.6651478 3.1935196 -4.3631935 5.8586655 -3.7926884c2.6651497 0.57050323 4.3631935 3.1935177 3.7926903 5.8586636c-0.57050323 2.6651497 -3.1935196 4.3631935 -5.8586655 3.7926903c-2.6651497 -0.57050323 -4.3631935 -3.1935196 -3.7926903 -5.8586655z" fill-rule="nonzero"/><path fill="#0000ff" stroke="#0000ff" stroke-width="3.0" stroke-linecap="butt" d="m129.13661 47.173958l-4.0052032 2.592823l9.770157 -1.3587723l-8.35778 -5.239254z" fill-rule="evenodd"/><path fill="#000000" fill-opacity="0.0" d="m132.52101 30.050428l90.86615 18.86614" fill-rule="evenodd"/><path stroke="#0000ff" stroke-width="3.0" stroke-linejoin="round" stroke-linecap="butt" d="m143.65358 32.361835l69.66699 14.464653" fill-rule="evenodd"/><path stroke="#0000ff" stroke-width="3.0" stroke-linecap="butt" d="m133.98969 30.355362c0.55407715 -2.6686115 3.1665802 -4.382784 5.83519 -3.8287125c2.6686096 0.5540714 4.382782 3.1665745 3.8287048 5.835186c-0.5540619 2.6686134 -3.166565 4.382786 -5.8351746 3.8287125c-2.6686249 -0.5540695 -4.3827972 -3.1665726 -3.82872 -5.835186z" fill-rule="nonzero"/><path fill="#0000ff" stroke="#0000ff" stroke-width="3.0" stroke-linecap="butt" d="m213.32059 46.826492l-3.989151 2.6174507l9.761597 -1.4189453l-8.389893 -5.18766z" fill-rule="evenodd"/><path fill="#000000" fill-opacity="0.0" d="m217.10583 28.258968l89.22833 41.03937" fill-rule="evenodd"/><path stroke="#0000ff" stroke-width="3.0" stroke-linejoin="round" stroke-linecap="butt" d="m227.43561 33.010014l69.55792 31.992214" fill-rule="evenodd"/><path stroke="#0000ff" stroke-width="3.0" stroke-linecap="butt" d="m218.4686 28.885756c1.1388855 -2.4761734 4.069458 -3.5602627 6.545639 -2.421379c2.4761658 1.1388817 3.560257 4.0694637 2.4213715 6.545637c-1.1388702 2.4761734 -4.069458 3.5602608 -6.545639 2.421379c-2.4761658 -1.1388817 -3.560257 -4.0694637 -2.4213715 -6.545637z" fill-rule="nonzero"/><path fill="#0000ff" stroke="#0000ff" stroke-width="3.0" stroke-linecap="butt" d="m296.99353 65.00223l-4.4748535 1.6553497l9.831024 0.8081589l-7.0115356 -6.9383507z" fill-rule="evenodd"/></g></svg>