<svg version="1.1" viewBox="0.0 0.0 480.0 240.0" fill="none" stroke="none" stroke-linecap="square" stroke-miterlimit="10" xmlns:xlink="http://www.w3.org/1999/xlink" xmlns="http://www.w3.org/2000/svg"><clipPath id="g3aa3f735953_0_22.0"><path d="m0 0l480.0 0l0 240.0l-480.0 0l0 -240.0z" clip-rule="nonzero"/></clipPath><g clip-path="url(#g3aa3f735953_0_22.0)"><path fill="#ffffff" d="m0 0l480.0 0l0 240.0l-480.0 0z" fill-rule="evenodd"/><path fill="#977e00" fill-opacity="0.3734" d="m136.90126 18.90303c0.028701782 1.1698112 0.019195557 5.0905 0.1722107 7.0188637c0.1530304 1.9283657 0.38839722 3.2392654 0.74591064 4.551323c0.35751343 1.3120575 0.92581177 2.386795 1.3991547 3.321022c0.47335815 0.9342308 0.9273224 1.566742 1.4409637 2.2843437c0.5136261 0.7176018 1.1059265 1.4108925 1.6408539 2.021267c0.5349426 0.61037445 1.0497742 1.0828438 1.5687408 1.640976c0.5189667 0.558136 1.0383759 1.1278458 1.5450897 1.7078323c0.50671387 0.57998276 1.0596008 1.2094612 1.4951782 1.7720795c0.43556213 0.5626221 0.81655884 1.1048393 1.1182709 1.6036415c0.30169678 0.498806 0.5226288 0.8688202 0.69192505 1.3891869c0.16931152 0.52036667 0.33306885 1.1423187 0.32388306 1.7330093c-0.00920105 0.5906944 -0.11366272 1.1549072 -0.37905884 1.8111534c-0.26539612 0.6562462 -0.7474518 1.4502525 -1.2133331 2.1263237c-0.4658661 0.67607117 -0.9878235 1.24086 -1.5818634 1.9300995c-0.5940552 0.6892395 -1.3450623 1.4899025 -1.9824219 2.2053337c-0.6373596 0.7154312 -1.2675476 1.398159 -1.8417358 2.0872536c-0.574173 0.68909454 -1.1304932 1.3809357 -1.603363 2.0473137c-0.47286987 0.6663742 -0.88197327 1.3106079 -1.2338715 1.9509392c-0.3518982 0.64032745 -0.6066742 1.1821098 -0.8775177 1.8910294c-0.2708435 0.7089195 -0.5541229 1.5085716 -0.7475891 2.362484c-0.19346619 0.85391235 -0.29962158 1.5959702 -0.41319275 2.7610092c-0.11357117 1.1650314 -0.21855164 2.8554993 -0.26823425 4.2292023c-0.04966736 1.373703 -0.024871826 3.3441772 -0.029846191 4.0130157" fill-rule="evenodd"/><path fill="#000000" fill-opacity="0.0" d="m48.178314 81.90216l89.88977 0" fill-rule="evenodd"/><path stroke="#0000ff" stroke-width="3.0" stroke-linejoin="round" stroke-linecap="butt" d="m59.548317 81.90216l68.2385 0" fill-rule="evenodd"/><path stroke="#0000ff" stroke-width="3.0" stroke-linecap="butt" d="m49.678314 81.90216c0 -2.725525 2.2094727 -4.9349976 4.9349976 -4.9349976c2.725525 0 4.9350014 2.2094727 4.9350014 4.9349976c0 2.725525 -2.2094765 4.9349976 -4.9350014 4.9349976c-2.725525 0 -4.9349976 -2.2094727 -4.9349976 -4.9349976z" fill-rule="nonzero"/><path fill="#0000ff" stroke="#0000ff" stroke-width="3.0" stroke-linecap="butt" d="m127.78682 81.90216l-3.3737488 3.3737488l9.269302 -3.3737488l-9.269302 -3.3737488z" fill-rule="evenodd"/><path fill="#000000" fill-opacity="0.0" d="m48.162903 193.66609l339.81104 0" fill-rule="evenodd"/><path stroke="#ff0000" stroke-width="3.0" stroke-linejoin="round" stroke-linecap="butt" d="m59.532906 193.66609l318.15976 0" fill-rule="evenodd"/><path stroke="#ff0000" stroke-width="3.0" stroke-linecap="butt" d="m49.662903 193.66609c0 -2.725525 2.2094765 -4.9349976 4.9350014 -4.9349976c2.725525 0 4.9349976 2.2094727 4.9349976 4.9349976c0 2.725525 -2.2094727 4.9349976 -4.9349976 4.9349976c-2.725525 0 -4.9350014 -2.2094727 -4.9350014 -4.9349976z" fill-rule="nonzero"/><path fill="#ff0000" stroke="#ff0000" stroke-width="3.0" stroke-linecap="butt" d="m377.69266 193.66609l-3.3737488 3.3737488l9.269287 -3.3737488l-9.269287 -3.3737488z" fill-rule="evenodd"/><path fill="#269700" fill-opacity="0.3734" d="m220.35986 91.93431c0.028701782 0.5530853 0.019195557 2.4067535 0.1722107 3.3184738c0.15301514 0.9117203 0.38839722 1.5315018 0.74591064 2.1518326c0.35751343 0.6203308 0.92581177 1.1284637 1.3991547 1.5701599c0.47335815 0.44169617 0.9273224 0.74074554 1.4409485 1.0800247c0.51364136 0.33927155 1.1059418 0.66706085 1.6408691 0.9556351c0.5349426 0.28858185 1.0497742 0.5119629 1.5687408 0.7758484c0.5189667 0.26387787 1.0383759 0.53323364 1.5450897 0.80744934c0.50671387 0.2742157 1.0596008 0.5718231 1.495163 0.8378296c0.4355774 0.26599884 0.8165741 0.5223541 1.1182861 0.75818634c0.30169678 0.23583221 0.5226288 0.41077423 0.69192505 0.6567993c0.16929626 0.24602509 0.33306885 0.5400772 0.32388306 0.8193588c-0.00920105 0.279274 -0.11366272 0.54602814 -0.37905884 0.85630035c-0.26539612 0.3102646 -0.74746704 0.68566895 -1.2133331 1.00531c-0.4658661 0.3196411 -0.9878235 0.5866699 -1.5818634 0.9125366c-0.5940552 0.3258667 -1.3450623 0.70441437 -1.9824219 1.0426636c-0.6373596 0.33825684 -1.2675476 0.66104126 -1.8417358 0.9868393c-0.574173 0.32579803 -1.1304932 0.6529007 -1.603363 0.96795654c-0.47286987 0.31506348 -0.88197327 0.6196518 -1.2338715 0.9223938c-0.3518982 0.302742 -0.6066742 0.5588913 -0.8775177 0.89406586c-0.27085876 0.33517456 -0.5541229 0.7132416 -0.7475891 1.1169662c-0.19346619 0.40372467 -0.29963684 0.7545624 -0.41319275 1.3053894c-0.11357117 0.5508194 -0.21855164 1.3500595 -0.26823425 1.9995346c-0.049682617 0.6494751 -0.024871826 1.5811081 -0.029846191 1.8973236" fill-rule="evenodd"/><path fill="#006f97" fill-opacity="0.3734" d="m304.19263 5.2997584c0.028686523 1.887681 0.019165039 8.214355 0.17218018 11.326086c0.15304565 3.1117325 0.38842773 5.227083 0.74594116 7.344303c0.35751343 2.11722 0.92578125 3.8514862 1.3991394 5.3590164c0.47335815 1.5075302 0.9273071 2.5281944 1.4409485 3.686163c0.51364136 1.1579666 1.1059265 2.2767067 1.6408691 3.2616425c0.5349426 0.9849396 1.0497742 1.747345 1.5687256 2.6479836c0.51898193 0.9006424 1.0383911 1.8199654 1.545105 2.755867c0.50671387 0.93590164 1.0596008 1.951664 1.4951782 2.8595428c0.4355774 0.9078789 0.81655884 1.7828369 1.1182556 2.587738c0.30169678 0.80490494 0.52264404 1.4019852 0.69195557 2.2416801c0.169281 0.839695 0.33306885 1.8433151 0.32385254 2.7964973c-0.009185791 0.9531784 -0.11364746 1.8636284 -0.37902832 2.9225883c-0.26541138 1.05896 -0.74746704 2.3402214 -1.2133484 3.4311714c-0.46585083 1.09095 -0.9878235 2.0023346 -1.5818787 3.1145325c-0.59402466 1.1122017 -1.3450317 2.4042015 -1.9823914 3.5586662c-0.6373596 1.1544647 -1.2675781 2.256157 -1.8417358 3.368126c-0.57418823 1.111969 -1.1304932 2.2283707 -1.6033936 3.3036728c-0.47286987 1.0753098 -0.881958 2.114891 -1.2338562 3.1481628c-0.3518982 1.0332718 -0.60665894 1.9075317 -0.87753296 3.0514832c-0.2708435 1.143959 -0.55410767 2.4343262 -0.7475586 3.8122559c-0.19348145 1.3779373 -0.2996521 2.5753632 -0.413208 4.455345c-0.113586426 1.8799744 -0.21853638 4.6078186 -0.268219 6.8245087c-0.049682617 2.2166977 -0.024902344 5.3963776 -0.029876709 6.4756546" fill-rule="evenodd"/><path fill="#150097" fill-opacity="0.3734" d="m387.2413 40.598385c0.028717041 1.456604 0.019195557 6.338501 0.1722107 8.739632c0.15301514 2.4011269 0.38839722 4.033413 0.74591064 5.667137c0.35751343 1.6337242 0.92581177 2.9719505 1.3991699 4.1352158c0.47335815 1.1632652 0.9273071 1.9508514 1.4409485 2.8443794c0.51364136 0.8935318 1.1059265 1.756794 1.6408691 2.5168076c0.5349426 0.7600174 1.0497742 1.3483124 1.5687256 2.0432816c0.51898193 0.6949692 1.0383911 1.4043579 1.545105 2.1265335c0.50671387 0.7221756 1.0596008 1.5059738 1.4951477 2.2065277c0.4355774 0.7005539 0.81658936 1.3757019 1.1182861 1.9967957c0.30169678 0.62109375 0.52264404 1.0818253 0.69192505 1.7297668c0.16931152 0.64793396 0.33306885 1.4223709 0.32388306 2.157875c-0.009185791 0.7355118 -0.11364746 1.4380493 -0.37905884 2.2551804c-0.26538086 0.81713104 -0.74746704 1.8058014 -1.2133179 2.6476212c-0.46588135 0.84181976 -0.9878235 1.5450745 -1.5818787 2.4032898c-0.5940552 0.85821533 -1.3450623 1.8551712 -1.9824219 2.7460022c-0.6373596 0.89082336 -1.2675476 1.7409363 -1.8417358 2.5989685c-0.5741577 0.8580322 -1.1304932 1.71949 -1.603363 2.54924c-0.47286987 0.82974243 -0.881958 1.6319199 -1.2338562 2.4292374c-0.3518982 0.7973099 -0.60668945 1.4719162 -0.87753296 2.3546371c-0.2708435 0.88272095 -0.55410767 1.878418 -0.7475891 2.941681c-0.19345093 1.0632629 -0.29962158 1.9872513 -0.413208 3.4379044c-0.11355591 1.4506607 -0.21853638 3.5555649 -0.268219 5.2660522c-0.049682617 1.7104874 -0.024871826 4.1640472 -0.029846191 4.9968567" fill-rule="evenodd"/><path fill="#000000" fill-opacity="0.0" d="m131.48125 81.90216l89.88977 0" fill-rule="evenodd"/><path stroke="#0000ff" stroke-width="3.0" stroke-linejoin="round" stroke-linecap="butt" d="m142.85126 81.90216l68.23851 0" fill-rule="evenodd"/><path stroke="#0000ff" stroke-width="3.0" stroke-linecap="butt" d="m132.98126 81.90216c0 -2.725525 2.2094727 -4.9349976 4.9349976 -4.9349976c2.725525 0 4.9349976 2.2094727 4.9349976 4.9349976c0 2.725525 -2.2094727 4.9349976 -4.9349976 4.9349976c-2.725525 0 -4.9349976 -2.2094727 -4.9349976 -4.9349976z" fill-rule="nonzero"/><path fill="#0000ff" stroke="#0000ff" stroke-width="3.0" stroke-linecap="butt" d="m211.08977 81.90216l-3.3737488 3.3737488l9.269302 -3.3737488l-9.269302 -3.3737488z" fill-rule="evenodd"/><path fill="#000000" fill-opacity="0.0" d="m214.48949 81.90216l89.889755 0" fill-rule="evenodd"/><path stroke="#0000ff" stroke-width="3.0" stroke-linejoin="round" stroke-linecap="butt" d="m225.85948 81.90216l68.23851 0" fill-rule="evenodd"/><path stroke="#0000ff" stroke-width="3.0" stroke-linecap="butt" d="m215.98949 81.90216c0 -2.725525 2.2094727 -4.9349976 4.9349976 -4.9349976c2.725525 0 4.9349976 2.2094727 4.9349976 4.9349976c0 2.725525 -2.2094727 4.9349976 -4.9349976 4.9349976c-2.725525 0 -4.9349976 -2.2094727 -4.9349976 -4.9349976z" fill-rule="nonzero"/><path fill="#0000ff" stroke="#0000ff" stroke-width="3.0" stroke-linecap="butt" d="m294.098 81.90216l-3.3737488 3.3737488l9.269287 -3.3737488l-9.269287 -3.3737488z" fill-rule="evenodd"/><path fill="#000000" fill-opacity="0.0" d="m298.06955 81.90216l89.88977 0" fill-rule="evenodd"/><path stroke="#0000ff" stroke-width="3.0" stroke-linejoin="round" stroke-linecap="butt" d="m309.43954 81.90216l68.238525 0" fill-rule="evenodd"/><path stroke="#0000ff" stroke-width="3.0" stroke-linecap="butt" d="m299.56952 81.90216c0 -2.725525 2.2095032 -4.9349976 4.935028 -4.9349976c2.725525 0 4.9349976 2.2094727 4.9349976 4.9349976c0 2.725525 -2.2094727 4.9349976 -4.9349976 4.9349976c-2.725525 0 -4.935028 -2.2094727 -4.935028 -4.9349976z" fill-rule="nonzero"/><path fill="#0000ff" stroke="#0000ff" stroke-width="3.0" stroke-linecap="butt" d="m377.67807 81.90216l-3.3737488 3.3737488l9.269287 -3.3737488l-9.269287 -3.3737488z" fill-rule="evenodd"/><path fill="#977e00" fill-opacity="0.3734" d="m387.3779 130.74619c0.028717041 1.1698151 0.019195557 5.0905 0.1722107 7.01886c0.15301514 1.9283752 0.38839722 3.239273 0.74591064 4.5513306c0.35751343 1.3120575 0.92581177 2.386795 1.3991699 3.3210297c0.47335815 0.93421936 0.9273071 1.5667267 1.4409485 2.2843323c0.51364136 0.7176056 1.1059265 1.4108887 1.6408691 2.0212708c0.5349426 0.6103668 1.0497437 1.08284 1.5687256 1.640976c0.51898193 0.558136 1.0383911 1.1278381 1.545105 1.7078247c0.50668335 0.5799866 1.0595703 1.2094727 1.4951477 1.7720795c0.4355774 0.5626221 0.81658936 1.1048431 1.1182861 1.603653c0.30169678 0.49879456 0.52264404 0.8688202 0.69192505 1.3891754c0.16931152 0.5203705 0.33306885 1.1423187 0.32388306 1.733017c-0.009185791 0.59069824 -0.11364746 1.1549072 -0.37905884 1.8111572c-0.26538086 0.65623474 -0.74746704 1.4502411 -1.2133179 2.1263123c-0.46588135 0.67607117 -0.9878235 1.24086 -1.5818787 1.9300995c-0.5940552 0.6892395 -1.3450623 1.489914 -1.9824219 2.2053375c-0.6373596 0.71543884 -1.2675476 1.3981628 -1.8417358 2.0872498c-0.57418823 0.6891022 -1.1304932 1.3809509 -1.603363 2.0473175c-0.47286987 0.66638184 -0.881958 1.3106079 -1.2338562 1.950943c-0.3518982 0.6403198 -0.60668945 1.1821136 -0.87753296 1.8910217c-0.2708435 0.70892334 -0.55410767 1.5085754 -0.7475891 2.3624878c-0.19345093 0.85391235 -0.29962158 1.5959778 -0.413208 2.7610168c-0.11355591 1.1650238 -0.21853638 2.8554993 -0.268219 4.2292023c-0.049682617 1.373703 -0.024871826 3.3441772 -0.029846191 4.0130005" fill-rule="evenodd"/><path fill="#269700" fill-opacity="0.3734" d="m387.42572 203.77747c0.028717041 0.5530853 0.019195557 2.4067535 0.1722107 3.3184814c0.15301514 0.91171265 0.38839722 1.5314941 0.74591064 2.151825c0.35751343 0.6203308 0.92581177 1.1284637 1.3991699 1.5701599c0.47332764 0.44169617 0.9273071 0.7407532 1.4409485 1.0800171c0.51364136 0.33927917 1.1059265 0.6670685 1.6408691 0.9556427c0.5349121 0.28858948 1.0497437 0.5119629 1.5687256 0.7758484c0.51898193 0.2638855 1.0383911 0.53323364 1.545105 0.80744934c0.50668335 0.2742157 1.0595703 0.5718231 1.4951477 0.8378296c0.4355774 0.26600647 0.81658936 0.5223541 1.1182861 0.75819397c0.30169678 0.23582458 0.5226135 0.4107666 0.69192505 0.6567993c0.16931152 0.24601746 0.33306885 0.5400696 0.32388306 0.8193512c-0.009185791 0.27928162 -0.11364746 0.54603577 -0.37905884 0.8562927c-0.26538086 0.31027222 -0.74746704 0.6856842 -1.2133179 1.0053253c-0.46588135 0.3196411 -0.9878235 0.5866699 -1.5818787 0.9125366c-0.5940552 0.3258667 -1.3450623 0.70440674 -1.9824219 1.0426636c-0.6373596 0.33824158 -1.2675476 0.66104126 -1.8417358 0.98683167c-0.57418823 0.32580566 -1.1304932 0.6529083 -1.603363 0.96795654c-0.47286987 0.31506348 -0.8819885 0.6196594 -1.2338867 0.9223938c-0.3518982 0.30274963 -0.60665894 0.5588989 -0.87750244 0.8940735c-0.2708435 0.3351593 -0.55410767 0.7132416 -0.7475891 1.1169586c-0.19345093 0.4037323 -0.29962158 0.7545624 -0.413208 1.3053894c-0.11355591 0.550827 -0.21853638 1.3500671 -0.268219 1.9995422c-0.049682617 0.6494751 -0.024871826 1.5811005 -0.029846191 1.8973236" fill-rule="evenodd"/><path fill="#006f97" fill-opacity="0.3734" d="m387.4264 117.142914c0.028686523 1.88768 0.019165039 8.214355 0.1722107 11.326096c0.15301514 3.1117249 0.38839722 5.2270813 0.74591064 7.3442993c0.35751343 2.117218 0.92578125 3.8514862 1.3991394 5.359009c0.47335815 1.5075378 0.92733765 2.5281982 1.4409485 3.6861725c0.51364136 1.157959 1.105957 2.276703 1.6408691 3.2616425c0.5349426 0.9849396 1.0497742 1.747345 1.5687561 2.6479797c0.5189514 0.90063477 1.0383606 1.8199615 1.5450745 2.7558594c0.50671387 0.9359131 1.0596008 1.9516754 1.4951782 2.8595428c0.4355774 0.9078827 0.81655884 1.7828369 1.1182556 2.587738c0.3017273 0.8049164 0.52264404 1.4019928 0.69195557 2.241684c0.169281 0.8397064 0.33306885 1.8433228 0.32385254 2.7964935c-0.009185791 0.95318604 -0.11364746 1.8636322 -0.37902832 2.9225922c-0.26541138 1.05896 -0.74746704 2.3402252 -1.2133484 3.4311676c-0.46585083 1.0909576 -0.9878235 2.0023346 -1.5818787 3.1145477c-0.59402466 1.1121979 -1.3450317 2.40419 -1.9823914 3.5586548c-0.6373596 1.1544647 -1.2675476 2.2561646 -1.8417358 3.3681335c-0.57418823 1.1119537 -1.1304932 2.228363 -1.603363 3.3036652c-0.4729004 1.0753174 -0.8819885 2.1148834 -1.2338867 3.1481628c-0.3518982 1.0332794 -0.60665894 1.9075317 -0.87750244 3.0514832c-0.27087402 1.1439667 -0.5541382 2.4343262 -0.7475891 3.8122559c-0.19348145 1.377945 -0.2996521 2.5753632 -0.413208 4.4553375c-0.113586426 1.8799896 -0.21853638 4.6078186 -0.268219 6.824524c-0.049682617 2.21669 -0.024902344 5.3963776 -0.029876709 6.475647" fill-rule="evenodd"/><path fill="#150097" fill-opacity="0.3734" d="m387.2413 152.44154c0.028717041 1.456604 0.019195557 6.338501 0.1722107 8.739624c0.15301514 2.4011383 0.38839722 4.0334167 0.74591064 5.667145c0.35751343 1.633728 0.92581177 2.9719543 1.3991699 4.135208c0.47335815 1.163269 0.9273071 1.9508514 1.4409485 2.8443909c0.51364136 0.89352417 1.1059265 1.7567902 1.6408691 2.5168c0.5349426 0.760025 1.0497742 1.3483124 1.5687256 2.0432892c0.51898193 0.69496155 1.0383911 1.4043427 1.545105 2.1265259c0.50671387 0.7221832 1.0596008 1.5059814 1.4951477 2.2065277c0.4355774 0.7005615 0.81658936 1.3757019 1.1182861 1.9967957c0.30169678 0.62109375 0.52264404 1.0818329 0.69192505 1.7297668c0.16931152 0.64793396 0.33306885 1.4223633 0.32388306 2.1578827c-0.009185791 0.73550415 -0.11364746 1.4380493 -0.37905884 2.2551727c-0.26538086 0.8171387 -0.74746704 1.8058014 -1.2133179 2.6476288c-0.46588135 0.84181213 -0.9878235 1.5450745 -1.5818787 2.4032898c-0.5940552 0.85821533 -1.3450623 1.8551636 -1.9824219 2.7460022c-0.6373596 0.89082336 -1.2675476 1.740921 -1.8417358 2.5989685c-0.5741577 0.8580322 -1.1304932 1.7194824 -1.603363 2.54924c-0.47286987 0.82974243 -0.881958 1.6319122 -1.2338562 2.4292297c-0.3518982 0.7973175 -0.60668945 1.4719238 -0.87753296 2.3546448c-0.2708435 0.88272095 -0.55410767 1.878418 -0.7475891 2.941681c-0.19345093 1.0632629 -0.29962158 1.9872437 -0.413208 3.4378967c-0.11355591 1.4506683 -0.21853638 3.5555725 -0.268219 5.2660522c-0.049682617 1.7104797 -0.024871826 4.1640472 -0.029846191 4.9968567" fill-rule="evenodd"/><path fill="#ff0000" fill-opacity="0.0759" d="m387.65 126.70006c0.06561279 0.8468933 -0.076538086 2.6771698 0.39370728 5.08136c0.47024536 2.4042053 1.4566956 7.0380554 2.427826 9.343842c0.9711304 2.3057709 1.9225769 3.094925 3.3989563 4.490814c1.4763794 1.3958893 3.7808228 2.6102295 5.45932 3.8845062c1.6784668 1.2742767 3.1513367 2.4098969 4.6115417 3.7611542c1.4601746 1.3512726 3.21521 2.873581 4.149597 4.346466c0.9343872 1.4728699 1.2344666 3.1959686 1.4566956 4.490814c0.222229 1.2948303 0.26116943 2.0739288 -0.12335205 3.2782135c-0.38452148 1.2042847 -1.330719 2.688095 -2.1837463 3.9475098c-0.8529968 1.2593994 -2.2431946 2.5017395 -2.9343567 3.6089172c-0.6911621 1.1071777 -0.8687744 1.6146088 -1.212616 3.0341187c-0.34384155 1.4195099 -0.52667236 3.8613281 -0.85040283 5.4829407c-0.32369995 1.6216125 -0.78826904 2.7904663 -1.0918579 4.2467194c-0.30358887 1.456253 -0.122924805 2.9846954 -0.7296448 4.490814c-0.6067505 1.5061188 -1.4142761 2.3928223 -2.9107666 4.545929c-1.4964905 2.1531067 -4.7331543 5.8849487 -6.0682373 8.372711c-1.335083 2.4877472 -2.2861023 4.874878 -1.9422607 6.5538025c0.34384155 1.6789093 2.4273682 2.4273834 4.005249 3.5196838c1.5778503 1.0923004 4.592285 2.1036682 5.4619446 3.0341187c0.8696289 0.93045044 0.7878418 1.5170593 -0.2441101 2.5485535c-1.0319214 1.0314941 -4.2082214 2.4269562 -5.9474792 3.6404266c-1.7392883 1.2134705 -3.6872559 1.8993835 -4.4881897 3.6404114c-0.80096436 1.7410431 -0.26467896 5.6714783 -0.31759644 6.805786" fill-rule="evenodd"/><path stroke="#ff0000" stroke-width="1.0" stroke-linejoin="round" stroke-linecap="butt" stroke-dasharray="4.0,3.0" d="m387.65 126.70006c0.06561279 0.8468933 -0.076538086 2.6771698 0.39370728 5.08136c0.47024536 2.4042053 1.4566956 7.0380554 2.427826 9.343842c0.9711304 2.3057709 1.9225769 3.094925 3.3989563 4.490814c1.4763794 1.3958893 3.7808228 2.6102295 5.45932 3.8845062c1.6784668 1.2742767 3.1513367 2.4098969 4.6115417 3.7611542c1.4601746 1.3512726 3.21521 2.873581 4.149597 4.346466c0.9343872 1.4728699 1.2344666 3.1959686 1.4566956 4.490814c0.222229 1.2948303 0.26116943 2.0739288 -0.12335205 3.2782135c-0.38452148 1.2042847 -1.330719 2.688095 -2.1837463 3.9475098c-0.8529968 1.2593994 -2.2431946 2.5017395 -2.9343567 3.6089172c-0.6911621 1.1071777 -0.8687744 1.6146088 -1.212616 3.0341187c-0.34384155 1.4195099 -0.52667236 3.8613281 -0.85040283 5.4829407c-0.32369995 1.6216125 -0.78826904 2.7904663 -1.0918579 4.2467194c-0.30358887 1.456253 -0.122924805 2.9846954 -0.7296448 4.490814c-0.6067505 1.5061188 -1.4142761 2.3928223 -2.9107666 4.545929c-1.4964905 2.1531067 -4.7331543 5.8849487 -6.0682373 8.372711c-1.335083 2.4877472 -2.2861023 4.874878 -1.9422607 6.5538025c0.34384155 1.6789093 2.4273682 2.4273834 4.005249 3.5196838c1.5778503 1.0923004 4.592285 2.1036682 5.4619446 3.0341187c0.8696289 0.93045044 0.7878418 1.5170593 -0.2441101 2.5485535c-1.0319214 1.0314941 -4.2082214 2.4269562 -5.9474792 3.6404266c-1.7392883 1.2134705 -3.6872559 1.8993835 -4.4881897 3.6404114c-0.80096436 1.7410431 -0.26467896 5.6714783 -0.31759644 6.805786" fill-rule="evenodd"/><path fill="#000000" fill-opacity="0.0" d="m23.515493 58.816067l42.803146 0l0 48.47244l-42.803146 0z" fill-rule="evenodd"/><path fill="#000000" d="m39.296745 83.65295q1.46875 -2.34375 1.875 -2.84375q0.609375 -0.734375 1.109375 -1.0q0.515625 -0.265625 1.015625 -0.265625q0.640625 0 1.03125 0.375q0.390625 0.359375 0.390625 0.984375q0 0.59375 -0.3125 0.953125q-0.3125 0.34375 -0.796875 0.34375q-0.578125 0 -0.890625 -0.671875q-0.21875 -0.4375 -0.46875 -0.4375q-0.28125 0 -0.5625 0.3125q-0.28125 0.296875 -2.15625 3.28125l0.84375 3.71875q0.171875 0.8125 0.390625 1.0625q0.21875 0.234375 0.53125 0.234375q0.921875 0 2.375 -2.3125l0.578125 0.328125q-1.046875 1.875 -2.0625 2.6875q-1.015625 0.796875 -1.765625 0.796875q-0.796875 0 -1.203125 -0.5625q-0.390625 -0.578125 -1.046875 -3.765625q-1.578125 2.84375 -2.5 3.71875q-0.65625 0.609375 -1.546875 0.609375q-0.703125 0 -1.140625 -0.421875q-0.4375 -0.4375 -0.4375 -1.078125q0 -0.515625 0.328125 -0.859375q0.328125 -0.359375 0.796875 -0.359375q0.359375 0 0.59375 0.171875q0.25 0.15625 0.40625 0.59375q0.140625 0.359375 0.21875 0.453125q0.09375 0.09375 0.234375 0.09375q0.265625 0 0.515625 -0.296875q0.515625 -0.625 2.28125 -3.625l-0.84375 -3.859375q-0.09375 -0.453125 -0.296875 -0.671875q-0.203125 -0.21875 -0.515625 -0.21875q-0.890625 0 -1.828125 2.25l-0.59375 -0.359375q0.8125 -2.0 1.609375 -2.734375q0.796875 -0.734375 1.59375 -0.734375q0.765625 0 1.1875 0.59375q0.421875 0.59375 1.0625 3.515625z" fill-rule="nonzero"/><path fill="#000000" d="m46.96862 89.54357l0.53125 0l0 2.984375l2.359375 0l0 0.71875l-2.359375 0l0 4.703125q0 0.609375 0.28125 0.9375q0.296875 0.3125 0.734375 0.3125q0.53125 0 0.90625 -0.484375q0.375 -0.5 0.4375 -1.625l0.53125 0q-0.046875 1.453125 -0.671875 2.171875q-0.609375 0.703125 -1.59375 0.703125q-0.90625 0 -1.421875 -0.5q-0.515625 -0.5 -0.515625 -1.296875l0 -4.921875l-1.265625 0l0 -0.546875q0.859375 -0.140625 1.3125 -0.71875q0.671875 -0.875 0.734375 -2.4375z" fill-rule="nonzero"/><path fill="#000000" fill-opacity="0.0" d="m386.7015 61.660015l97.22833 0l0 48.47244l-97.22833 0z" fill-rule="evenodd"/><path fill="#000000" d="m402.48276 86.49689q1.46875 -2.34375 1.875 -2.84375q0.609375 -0.734375 1.109375 -1.0q0.515625 -0.265625 1.015625 -0.265625q0.640625 0 1.03125 0.375q0.390625 0.359375 0.390625 0.984375q0 0.59375 -0.3125 0.953125q-0.3125 0.34375 -0.796875 0.34375q-0.578125 0 -0.890625 -0.671875q-0.21875 -0.4375 -0.46875 -0.4375q-0.28125 0 -0.5625 0.3125q-0.28125 0.296875 -2.15625 3.28125l0.84375 3.71875q0.171875 0.8125 0.390625 1.0625q0.21875 0.234375 0.53125 0.234375q0.921875 0 2.375 -2.3125l0.578125 0.328125q-1.046875 1.875 -2.0625 2.6875q-1.015625 0.796875 -1.765625 0.796875q-0.796875 0 -1.203125 -0.5625q-0.390625 -0.578125 -1.046875 -3.765625q-1.578125 2.84375 -2.5 3.71875q-0.65625 0.609375 -1.546875 0.609375q-0.703125 0 -1.140625 -0.421875q-0.4375 -0.4375 -0.4375 -1.078125q0 -0.515625 0.328125 -0.859375q0.328125 -0.359375 0.796875 -0.359375q0.359375 0 0.59375 0.171875q0.25 0.15625 0.40625 0.59375q0.140625 0.359375 0.21875 0.453125q0.09375 0.09375 0.234375 0.09375q0.265625 0 0.515625 -0.296875q0.515625 -0.625 2.28125 -3.625l-0.84375 -3.859375q-0.09375 -0.453125 -0.296875 -0.671875q-0.203125 -0.21875 -0.515625 -0.21875q-0.890625 0 -1.828125 2.25l-0.59375 -0.359375q0.8125 -2.0 1.609375 -2.734375q0.796875 -0.734375 1.59375 -0.734375q0.765625 0 1.1875 0.59375q0.421875 0.59375 1.0625 3.515625z" fill-rule="nonzero"/><path fill="#000000" d="m410.15463 92.38751l0.53125 0l0 2.984375l2.359375 0l0 0.71875l-2.359375 0l0 4.703125q0 0.609375 0.28125 0.9375q0.296875 0.3125 0.734375 0.3125q0.53125 0 0.90625 -0.484375q0.375 -0.5 0.4375 -1.625l0.53125 0q-0.046875 1.453125 -0.671875 2.171875q-0.609375 0.703125 -1.59375 0.703125q-0.90625 0 -1.421875 -0.5q-0.515625 -0.5 -0.515625 -1.296875l0 -4.921875l-1.265625 0l0 -0.546875q0.859375 -0.140625 1.3125 -0.71875q0.671875 -0.875 0.734375 -2.4375zm4.3203125 4.375l3.78125 0l0 -3.796875l1.046875 0l0 3.796875l3.796875 0l0 1.046875l-3.796875 0l0 3.765625l-1.046875 0l0 -3.765625l-3.78125 0l0 -1.046875zm15.2421875 -4.90625l0.515625 0l0 7.390625l1.796875 0l0 0.671875l-1.796875 0l0 1.65625q0 0.21875 0.171875 0.359375q0.25 0.171875 0.578125 0.171875l0.65625 0l0 0.59375l-4.328125 0l0 -0.59375l0.796875 0q0.40625 0 0.59375 -0.171875q0.203125 -0.171875 0.203125 -0.5l0 -1.515625l-4.421875 0l0 -0.75l5.234375 -7.3125zm-0.8125 2.125l-3.78125 5.265625l3.78125 0l0 -5.265625z" fill-rule="nonzero"/><path fill="#000000" d="m432.91245 102.70001l4.75 -10.84375l0.265625 0l4.484375 10.84375l-9.5 0zm7.640625 -0.671875l-3.171875 -7.78125l-3.421875 7.78125l6.59375 0z" fill-rule="nonzero"/><path fill="#000000" d="m445.264 92.38751l0.53125 0l0 2.984375l2.359375 0l0 0.71875l-2.359375 0l0 4.703125q0 0.609375 0.28125 0.9375q0.296875 0.3125 0.734375 0.3125q0.53125 0 0.90625 -0.484375q0.375 -0.5 0.4375 -1.625l0.53125 0q-0.046875 1.453125 -0.671875 2.171875q-0.609375 0.703125 -1.59375 0.703125q-0.90625 0 -1.421875 -0.5q-0.515625 -0.5 -0.515625 -1.296875l0 -4.921875l-1.265625 0l0 -0.546875q0.859375 -0.140625 1.3125 -0.71875q0.671875 -0.875 0.734375 -2.4375z" fill-rule="nonzero"/><path fill="#000000" fill-opacity="0.0" d="m381.22824 83.66707l11.181122 -3.5275574" fill-rule="evenodd"/><path stroke="#0000ff" stroke-width="3.0" stroke-linejoin="round" stroke-linecap="butt" d="m392.07144 80.24613l0.33792114 -0.10662079" fill-rule="evenodd"/><path stroke="#0000ff" stroke-width="3.0" stroke-linecap="butt" d="m382.65875 83.21576c-0.82003784 -2.5992355 0.62228394 -5.3711014 3.221527 -6.191147c2.5992432 -0.82003784 5.3710938 0.62228394 6.1911316 3.2215195c0.82003784 2.5992355 -0.62228394 5.3711014 -3.2214966 6.191147c-2.5992432 0.82003784 -5.3711243 -0.62228394 -6.191162 -3.2215195z" fill-rule="nonzero"/><path fill="#000000" fill-opacity="0.0" d="m24.60839 169.35245l42.803146 0l0 48.472443l-42.803146 0z" fill-rule="evenodd"/><path fill="#000000" d="m40.38964 194.18932q1.46875 -2.34375 1.875 -2.84375q0.609375 -0.734375 1.109375 -1.0q0.515625 -0.265625 1.015625 -0.265625q0.640625 0 1.03125 0.375q0.390625 0.359375 0.390625 0.984375q0 0.59375 -0.3125 0.953125q-0.3125 0.34375 -0.796875 0.34375q-0.578125 0 -0.890625 -0.671875q-0.21875 -0.4375 -0.46875 -0.4375q-0.28125 0 -0.5625 0.3125q-0.28125 0.296875 -2.15625 3.28125l0.84375 3.71875q0.171875 0.8125 0.390625 1.0625q0.21875 0.234375 0.53125 0.234375q0.921875 0 2.375 -2.3125l0.578125 0.328125q-1.046875 1.875 -2.0625 2.6875q-1.015625 0.796875 -1.765625 0.796875q-0.796875 0 -1.203125 -0.5625q-0.390625 -0.578125 -1.046875 -3.765625q-1.578125 2.84375 -2.5 3.71875q-0.65625 0.609375 -1.546875 0.609375q-0.703125 0 -1.140625 -0.421875q-0.4375 -0.4375 -0.4375 -1.078125q0 -0.515625 0.328125 -0.859375q0.328125 -0.359375 0.796875 -0.359375q0.359375 0 0.59375 0.171875q0.25 0.15625 0.40625 0.59375q0.140625 0.359375 0.21875 0.453125q0.09375 0.09375 0.234375 0.09375q0.265625 0 0.515625 -0.296875q0.515625 -0.625 2.28125 -3.625l-0.84375 -3.859375q-0.09375 -0.453125 -0.296875 -0.671875q-0.203125 -0.21875 -0.515625 -0.21875q-0.890625 0 -1.828125 2.25l-0.59375 -0.359375q0.8125 -2.0 1.609375 -2.734375q0.796875 -0.734375 1.59375 -0.734375q0.765625 0 1.1875 0.59375q0.421875 0.59375 1.0625 3.515625z" fill-rule="nonzero"/><path fill="#000000" d="m48.061516 200.07994l0.53125 0l0 2.984375l2.359375 0l0 0.71875l-2.359375 0l0 4.703125q0 0.609375 0.28125 0.9375q0.296875 0.3125 0.734375 0.3125q0.53125 0 0.90625 -0.484375q0.375 -0.5 0.4375 -1.625l0.53125 0q-0.046875 1.453125 -0.671875 2.171875q-0.609375 0.703125 -1.59375 0.703125q-0.90625 0 -1.421875 -0.5q-0.515625 -0.5 -0.515625 -1.296875l0 -4.921875l-1.265625 0l0 -0.546875q0.859375 -0.140625 1.3125 -0.71875q0.671875 -0.875 0.734375 -2.4375z" fill-rule="nonzero"/><path fill="#000000" fill-opacity="0.0" d="m388.65646 172.1964l97.22836 0l0 48.472443l-97.22836 0z" fill-rule="evenodd"/><path fill="#000000" d="m404.4377 197.03326q1.46875 -2.34375 1.875 -2.84375q0.609375 -0.734375 1.109375 -1.0q0.515625 -0.265625 1.015625 -0.265625q0.640625 0 1.03125 0.375q0.390625 0.359375 0.390625 0.984375q0 0.59375 -0.3125 0.953125q-0.3125 0.34375 -0.796875 0.34375q-0.578125 0 -0.890625 -0.671875q-0.21875 -0.4375 -0.46875 -0.4375q-0.28125 0 -0.5625 0.3125q-0.28125 0.296875 -2.15625 3.28125l0.84375 3.71875q0.171875 0.8125 0.390625 1.0625q0.21875 0.234375 0.53125 0.234375q0.921875 0 2.375 -2.3125l0.578125 0.328125q-1.046875 1.875 -2.0625 2.6875q-1.015625 0.796875 -1.765625 0.796875q-0.796875 0 -1.203125 -0.5625q-0.390625 -0.578125 -1.046875 -3.765625q-1.578125 2.84375 -2.5 3.71875q-0.65625 0.609375 -1.546875 0.609375q-0.703125 0 -1.140625 -0.421875q-0.4375 -0.4375 -0.4375 -1.078125q0 -0.515625 0.328125 -0.859375q0.328125 -0.359375 0.796875 -0.359375q0.359375 0 0.59375 0.171875q0.25 0.15625 0.40625 0.59375q0.140625 0.359375 0.21875 0.453125q0.09375 0.09375 0.234375 0.09375q0.265625 0 0.515625 -0.296875q0.515625 -0.625 2.28125 -3.625l-0.84375 -3.859375q-0.09375 -0.453125 -0.296875 -0.671875q-0.203125 -0.21875 -0.515625 -0.21875q-0.890625 0 -1.828125 2.25l-0.59375 -0.359375q0.8125 -2.0 1.609375 -2.734375q0.796875 -0.734375 1.59375 -0.734375q0.765625 0 1.1875 0.59375q0.421875 0.59375 1.0625 3.515625z" fill-rule="nonzero"/><path fill="#000000" d="m412.1096 202.92389l0.53125 0l0 2.984375l2.359375 0l0 0.71875l-2.359375 0l0 4.703125q0 0.609375 0.28125 0.9375q0.296875 0.3125 0.734375 0.3125q0.53125 0 0.90625 -0.484375q0.375 -0.5 0.4375 -1.625l0.53125 0q-0.046875 1.453125 -0.671875 2.171875q-0.609375 0.703125 -1.59375 0.703125q-0.90625 0 -1.421875 -0.5q-0.515625 -0.5 -0.515625 -1.296875l0 -4.921875l-1.265625 0l0 -0.546875q0.859375 -0.140625 1.3125 -0.71875q0.671875 -0.875 0.734375 -2.4375zm4.3203125 4.375l3.78125 0l0 -3.796875l1.046875 0l0 3.796875l3.796875 0l0 1.046875l-3.796875 0l0 3.765625l-1.046875 0l0 -3.765625l-3.78125 0l0 -1.046875zm15.2421875 -4.90625l0.515625 0l0 7.390625l1.796875 0l0 0.671875l-1.796875 0l0 1.65625q0 0.21875 0.171875 0.359375q0.25 0.171875 0.578125 0.171875l0.65625 0l0 0.59375l-4.328125 0l0 -0.59375l0.796875 0q0.40625 0 0.59375 -0.171875q0.203125 -0.171875 0.203125 -0.5l0 -1.515625l-4.421875 0l0 -0.75l5.234375 -7.3125zm-0.8125 2.125l-3.78125 5.265625l3.78125 0l0 -5.265625z" fill-rule="nonzero"/><path fill="#000000" d="m434.8674 213.23639l4.75 -10.84375l0.265625 0l4.484375 10.84375l-9.5 0zm7.640625 -0.671875l-3.171875 -7.78125l-3.421875 7.78125l6.59375 0z" fill-rule="nonzero"/><path fill="#000000" d="m447.21896 202.92389l0.53125 0l0 2.984375l2.359375 0l0 0.71875l-2.359375 0l0 4.703125q0 0.609375 0.28125 0.9375q0.296875 0.3125 0.734375 0.3125q0.53125 0 0.90625 -0.484375q0.375 -0.5 0.4375 -1.625l0.53125 0q-0.046875 1.453125 -0.671875 2.171875q-0.609375 0.703125 -1.59375 0.703125q-0.90625 0 -1.421875 -0.5q-0.515625 -0.5 -0.515625 -1.296875l0 -4.921875l-1.265625 0l0 -0.546875q0.859375 -0.140625 1.3125 -0.71875q0.671875 -0.875 0.734375 -2.4375z" fill-rule="nonzero"/><path fill="#000000" fill-opacity="0.0" d="m380.6797 195.57263l11.181122 -3.5275726" fill-rule="evenodd"/><path stroke="#ff0000" stroke-width="3.0" stroke-linejoin="round" stroke-linecap="butt" d="m391.5229 192.1517l0.33792114 -0.10662842" fill-rule="evenodd"/><path stroke="#ff0000" stroke-width="3.0" stroke-linecap="butt" d="m382.1102 195.12132c-0.82003784 -2.5992432 0.62228394 -5.371109 3.221527 -6.191147c2.5992432 -0.82003784 5.3710938 0.62228394 6.1911316 3.2215118c0.82003784 2.5992432 -0.62228394 5.371109 -3.2214966 6.191147c-2.5992432 0.82003784 -5.3711243 -0.62228394 -6.191162 -3.2215118z" fill-rule="nonzero"/></g></svg>